<svg width="163.95" height="30.421" viewBox="0 0 163.95 30.421" xmlns="http://www.w3.org/2000/svg"><g id="svgGroup" stroke-linecap="round" fill-rule="evenodd" font-size="9pt" stroke="#d9e7da" stroke-width="0.25mm" fill="#543631" style="stroke:#d9e7da;stroke-width:0.25mm;fill:#543631"><path d="M 20.25 23.34 L 0 23.34 L 0 18.42 L 1.5 18.42 L 1.5 4.92 L 0 4.92 L 0 0 L 20.25 0 L 20.25 9.06 L 13.53 9.06 L 13.53 4.92 L 9.9 4.92 L 9.9 9.66 L 12.54 9.66 L 12.54 13.08 L 9.9 13.08 L 9.9 18.42 L 13.53 18.42 L 13.53 13.68 L 20.25 13.68 L 20.25 23.34 Z M 42.69 29.43 L 42.69 24.51 Q 45.535 25.02 47.851 25.074 A 23.223 23.223 0 0 0 48.39 25.08 Q 50.1 25.08 50.865 24.555 Q 51.455 24.151 51.59 23.203 A 4.348 4.348 0 0 0 51.63 22.59 L 51.63 21.3 A 7.001 7.001 0 0 1 50.458 22.47 A 8.759 8.759 0 0 1 49.695 23.01 A 4.859 4.859 0 0 1 47.403 23.746 A 5.963 5.963 0 0 1 46.98 23.76 A 6.504 6.504 0 0 1 45.055 23.491 A 4.916 4.916 0 0 1 42.375 21.48 Q 40.83 19.2 40.83 15 A 18.384 18.384 0 0 1 40.981 12.563 Q 41.147 11.327 41.495 10.317 A 7.597 7.597 0 0 1 42.375 8.52 A 4.995 4.995 0 0 1 46.017 6.302 A 7.303 7.303 0 0 1 46.98 6.24 A 5.309 5.309 0 0 1 48.629 6.489 A 4.7 4.7 0 0 1 49.695 6.99 A 8.299 8.299 0 0 1 50.89 7.9 A 6.72 6.72 0 0 1 51.63 8.7 L 51.63 6.66 L 59.85 6.66 L 59.85 11.58 L 58.53 11.58 L 58.53 22.14 Q 58.53 24.781 57.734 26.542 A 5.743 5.743 0 0 1 56.37 28.455 A 6.744 6.744 0 0 1 54.012 29.816 Q 52.983 30.174 51.718 30.32 A 16.222 16.222 0 0 1 49.86 30.42 A 28.077 28.077 0 0 1 46.604 30.237 A 24.849 24.849 0 0 1 45.735 30.12 A 28.776 28.776 0 0 1 44.597 29.925 Q 43.434 29.699 42.69 29.43 Z M 31.89 8.7 L 31.89 4.92 L 30.12 4.92 L 30.12 0 L 38.79 0 L 38.79 18.42 L 40.11 18.42 L 40.11 23.34 L 31.89 23.34 L 31.89 21.3 A 7.001 7.001 0 0 1 30.718 22.47 A 8.759 8.759 0 0 1 29.955 23.01 A 4.859 4.859 0 0 1 27.663 23.746 A 5.963 5.963 0 0 1 27.24 23.76 A 6.504 6.504 0 0 1 25.315 23.491 A 4.916 4.916 0 0 1 22.635 21.48 Q 21.09 19.2 21.09 15 A 18.384 18.384 0 0 1 21.241 12.563 Q 21.407 11.327 21.755 10.317 A 7.597 7.597 0 0 1 22.635 8.52 A 4.995 4.995 0 0 1 26.277 6.302 A 7.303 7.303 0 0 1 27.24 6.24 A 5.309 5.309 0 0 1 28.889 6.489 A 4.7 4.7 0 0 1 29.955 6.99 A 8.299 8.299 0 0 1 31.15 7.9 A 6.72 6.72 0 0 1 31.89 8.7 Z M 159 23.34 L 150.06 23.34 L 146.28 11.58 L 145.02 11.58 L 145.02 6.66 L 154.29 6.66 L 154.29 11.58 L 153.03 11.58 L 154.62 17.52 L 154.92 17.52 L 156.51 11.58 L 155.25 11.58 L 155.25 6.66 L 163.95 6.66 L 163.95 11.58 L 162.69 11.58 L 159 23.34 Z M 103.38 23.34 L 103.38 18.42 L 104.88 18.42 L 104.88 4.95 L 103.38 4.95 L 103.38 0 L 115.56 0 A 14.813 14.813 0 0 1 118.896 0.355 Q 121.632 0.987 123.525 2.745 A 8.198 8.198 0 0 1 125.584 5.905 Q 126.088 7.233 126.308 8.892 A 21.115 21.115 0 0 1 126.48 11.67 A 20.411 20.411 0 0 1 126.246 14.875 Q 125.98 16.544 125.412 17.861 A 8.003 8.003 0 0 1 123.525 20.595 A 9.943 9.943 0 0 1 118.912 22.982 A 14.797 14.797 0 0 1 115.56 23.34 L 103.38 23.34 Z M 77.61 13.92 L 77.61 16.08 L 67.89 16.08 L 67.89 16.26 A 2.951 2.951 0 0 0 67.951 16.883 Q 68.034 17.266 68.229 17.55 A 1.575 1.575 0 0 0 68.55 17.895 Q 69.145 18.369 70.448 18.415 A 8.194 8.194 0 0 0 70.74 18.42 Q 72.57 18.42 74.22 18.15 A 22.152 22.152 0 0 0 75.583 17.885 Q 76.253 17.732 76.836 17.547 A 12.693 12.693 0 0 0 77.1 17.46 L 77.1 22.26 A 6.954 6.954 0 0 1 76.349 22.606 Q 75.417 22.976 74.025 23.295 A 18.332 18.332 0 0 1 71.219 23.705 A 22.434 22.434 0 0 1 69.63 23.76 A 13.069 13.069 0 0 1 66.935 23.499 Q 65.258 23.146 63.979 22.314 A 7.399 7.399 0 0 1 62.97 21.525 A 7.163 7.163 0 0 1 60.967 18.15 Q 60.57 16.745 60.57 15 A 12.227 12.227 0 0 1 60.822 12.435 Q 61.348 9.986 62.97 8.475 Q 65.18 6.417 68.968 6.254 A 15.424 15.424 0 0 1 69.63 6.24 A 12.833 12.833 0 0 1 71.823 6.415 Q 73.015 6.622 73.944 7.075 A 5.457 5.457 0 0 1 75.735 8.445 A 7.807 7.807 0 0 1 77.533 12.636 A 10.375 10.375 0 0 1 77.61 13.92 Z M 144.36 13.92 L 144.36 16.08 L 134.64 16.08 L 134.64 16.26 A 2.951 2.951 0 0 0 134.701 16.883 Q 134.784 17.266 134.979 17.55 A 1.575 1.575 0 0 0 135.3 17.895 Q 135.895 18.369 137.198 18.415 A 8.194 8.194 0 0 0 137.49 18.42 Q 139.32 18.42 140.97 18.15 A 22.152 22.152 0 0 0 142.333 17.885 Q 143.003 17.732 143.586 17.547 A 12.693 12.693 0 0 0 143.85 17.46 L 143.85 22.26 A 6.954 6.954 0 0 1 143.099 22.606 Q 142.167 22.976 140.775 23.295 A 18.332 18.332 0 0 1 137.969 23.705 A 22.434 22.434 0 0 1 136.38 23.76 A 13.069 13.069 0 0 1 133.685 23.499 Q 132.008 23.146 130.729 22.314 A 7.399 7.399 0 0 1 129.72 21.525 A 7.163 7.163 0 0 1 127.717 18.15 Q 127.32 16.745 127.32 15 A 12.227 12.227 0 0 1 127.572 12.435 Q 128.098 9.986 129.72 8.475 Q 131.93 6.417 135.718 6.254 A 15.424 15.424 0 0 1 136.38 6.24 A 12.833 12.833 0 0 1 138.573 6.415 Q 139.765 6.622 140.694 7.075 A 5.457 5.457 0 0 1 142.485 8.445 A 7.807 7.807 0 0 1 144.283 12.636 A 10.375 10.375 0 0 1 144.36 13.92 Z M 93.36 6.66 L 93.36 12.39 A 6.801 6.801 0 0 0 90.808 11.881 A 7.751 7.751 0 0 0 90.72 11.88 A 5.783 5.783 0 0 0 89.573 11.987 Q 88.495 12.205 87.81 12.87 A 3.13 3.13 0 0 0 87.014 14.193 Q 86.79 14.896 86.79 15.81 L 86.79 18.42 L 89.49 18.42 L 89.49 23.34 L 78.57 23.34 L 78.57 18.42 L 79.89 18.42 L 79.89 11.58 L 78.57 11.58 L 78.57 6.66 L 86.79 6.66 L 86.79 8.85 Q 87.63 7.59 88.71 6.915 A 4.349 4.349 0 0 1 90.236 6.335 A 5.927 5.927 0 0 1 91.32 6.24 A 5.385 5.385 0 0 1 92.221 6.314 A 4.799 4.799 0 0 1 92.46 6.36 A 5.295 5.295 0 0 1 92.84 6.459 Q 93.033 6.517 93.197 6.586 A 2.688 2.688 0 0 1 93.36 6.66 Z M 113.28 18.42 L 115.02 18.42 A 3.063 3.063 0 0 0 115.604 18.368 Q 115.936 18.304 116.192 18.159 A 1.509 1.509 0 0 0 116.55 17.88 Q 116.934 17.474 117.029 16.729 A 4.185 4.185 0 0 0 117.06 16.2 L 117.06 7.14 A 3.502 3.502 0 0 0 116.966 6.289 Q 116.622 4.92 115.02 4.92 L 113.28 4.92 L 113.28 18.42 Z M 31.89 16.5 L 31.89 13.5 Q 31.89 12.895 31.727 12.486 A 1.386 1.386 0 0 0 31.455 12.045 Q 31.076 11.64 30.366 11.588 A 2.958 2.958 0 0 0 30.15 11.58 A 2.586 2.586 0 0 0 29.65 11.626 Q 29.366 11.682 29.147 11.807 A 1.289 1.289 0 0 0 28.845 12.045 Q 28.524 12.389 28.44 13.018 A 3.651 3.651 0 0 0 28.41 13.5 L 28.41 16.5 Q 28.41 17.106 28.573 17.514 A 1.386 1.386 0 0 0 28.845 17.955 Q 29.224 18.361 29.934 18.413 A 2.958 2.958 0 0 0 30.15 18.42 A 2.586 2.586 0 0 0 30.65 18.375 Q 30.934 18.319 31.153 18.193 A 1.289 1.289 0 0 0 31.455 17.955 Q 31.776 17.612 31.86 16.983 A 3.651 3.651 0 0 0 31.89 16.5 Z M 51.63 16.5 L 51.63 13.5 Q 51.63 12.895 51.467 12.486 A 1.386 1.386 0 0 0 51.195 12.045 Q 50.816 11.64 50.106 11.588 A 2.958 2.958 0 0 0 49.89 11.58 A 2.586 2.586 0 0 0 49.39 11.626 Q 49.106 11.682 48.887 11.807 A 1.289 1.289 0 0 0 48.585 12.045 Q 48.264 12.389 48.18 13.018 A 3.651 3.651 0 0 0 48.15 13.5 L 48.15 16.5 Q 48.15 17.106 48.313 17.514 A 1.386 1.386 0 0 0 48.585 17.955 Q 48.964 18.361 49.674 18.413 A 2.958 2.958 0 0 0 49.89 18.42 A 2.586 2.586 0 0 0 50.39 18.375 Q 50.674 18.319 50.893 18.193 A 1.289 1.289 0 0 0 51.195 17.955 Q 51.516 17.612 51.6 16.983 A 3.651 3.651 0 0 0 51.63 16.5 Z M 67.89 12.78 L 71.37 12.78 L 71.37 12.42 Q 71.37 11.4 70.935 10.95 Q 70.5 10.5 69.63 10.5 A 2.586 2.586 0 0 0 69.13 10.546 Q 68.846 10.602 68.627 10.727 A 1.289 1.289 0 0 0 68.325 10.965 Q 68.004 11.309 67.92 11.938 A 3.651 3.651 0 0 0 67.89 12.42 L 67.89 12.78 Z M 134.64 12.78 L 138.12 12.78 L 138.12 12.42 Q 138.12 11.4 137.685 10.95 Q 137.25 10.5 136.38 10.5 A 2.586 2.586 0 0 0 135.88 10.546 Q 135.596 10.602 135.377 10.727 A 1.289 1.289 0 0 0 135.075 10.965 Q 134.754 11.309 134.67 11.938 A 3.651 3.651 0 0 0 134.64 12.42 L 134.64 12.78 Z" vector-effect="non-scaling-stroke"/></g></svg>