<svg width="144" height="72" viewBox="0 36 144 72" fill="none" xmlns="http://www.w3.org/2000/svg">
<circle cx="72" cy="72" r="72" fill="#FFF1E2"/>
<path d="M88.2083 64.725C95.1374 71.5363 83.9033 74.137 81.5462 78.011L58.9191 55.3839C57.4999 53.9647 51.0072 55.5528 48.9945 55.6614C46.3109 55.8063 43.1638 51.5926 42.6595 50.0865C42.1552 48.5803 41.5188 45.0729 45.756 42.8796C51.1159 40.1052 54.2778 45.8081 62.2063 52.7062C70.1348 59.6044 79.547 56.2109 88.2083 64.725Z" fill="white" stroke="#F27D7A"/>
<mask id="mask0_1305_975" style="mask-type:alpha" maskUnits="userSpaceOnUse" x="4" y="4" width="136" height="136">
<rect x="95.3347" y="139.176" width="128" height="62" transform="rotate(-135 95.3347 139.176)" fill="#C4C4C4"/>
</mask>
<g mask="url(#mask0_1305_975)">
<mask id="mask1_1305_975" style="mask-type:alpha" maskUnits="userSpaceOnUse" x="4" y="5" width="135" height="135">
<rect x="94.6277" y="139.883" width="128" height="62" transform="rotate(-135 94.6277 139.883)" fill="#C4C4C4"/>
</mask>
<g mask="url(#mask1_1305_975)">
<path d="M79.1287 122.97C93.7576 137.598 113.828 119.268 116.82 116.276C120.14 112.956 136.891 95.8789 121.501 80.4886C107.903 66.8913 101.5 74.8203 92.4046 66.1875C86.936 60.9972 88.0595 57.9261 85.4441 55.3106C83.2688 53.1353 80.1686 53.8427 78.4277 58.6289C76.6869 63.4152 72.5418 65.0587 68.4199 63.9599C55.3672 60.4803 45.0864 77.0695 54.0595 86.0426C59.935 91.9182 60.8032 90.937 65.8607 95.5593C72.673 101.786 68.5241 112.365 79.1287 122.97Z" fill="#F27D7A"/>
<circle cx="76.95" cy="79.0714" r="10" transform="rotate(-135 76.95 79.0714)" fill="white" stroke="white"/>
<line x1="94.9812" y1="94.2742" x2="42.6553" y2="41.9483" stroke="#F27D7A"/>
<line x1="93.5671" y1="95.6885" x2="41.2412" y2="43.3626" stroke="#F27D7A"/>
<line x1="92.1528" y1="97.1028" x2="39.8269" y2="44.7769" stroke="#F27D7A"/>
<path d="M75.1381 82.9163L75.4917 83.2699L75.8453 82.9163L80.795 77.9665L81.1486 77.613L80.795 77.2594L43.3183 39.7828L42.9648 39.4292L42.6112 39.7828L37.6615 44.7325L37.3079 45.0861L37.6615 45.4396L75.1381 82.9163Z" stroke="#F27D7A"/>
<path d="M35.5843 44.7768L24.5112 33.7038C23.714 32.9066 23.5572 31.6922 24.151 30.7719C24.8265 29.725 25.6659 28.5322 26.3919 27.8063C27.1178 27.0803 28.3106 26.2409 29.3575 25.5654C30.2778 24.9715 31.4922 25.1284 32.2894 25.9256L43.3625 36.9987C44.3388 37.975 44.3388 39.5579 43.3625 40.5342L39.1198 44.7768C38.1435 45.7531 36.5606 45.7531 35.5843 44.7768Z" fill="#F27D7A" stroke="#F27D7A"/>
<ellipse cx="31.697" cy="44.4213" rx="1" ry="1.00274" transform="rotate(-135 31.697 44.4213)" fill="#F27D7A" stroke="#F27D7A"/>
<ellipse cx="43.0107" cy="33.1075" rx="1" ry="1.00274" transform="rotate(-135 43.0107 33.1075)" fill="#F27D7A" stroke="#F27D7A"/>
<ellipse cx="35.9401" cy="40.0738" rx="1.07398" ry="1.07692" transform="rotate(-135 35.9401 40.0738)" fill="white" stroke="white"/>
<ellipse cx="38.8773" cy="37.1366" rx="1.07398" ry="1.07692" transform="rotate(-135 38.8773 37.1366)" fill="white" stroke="white"/>
<ellipse cx="28.1616" cy="40.8859" rx="1" ry="1.00274" transform="rotate(-135 28.1616 40.8859)" fill="#F27D7A" stroke="#F27D7A"/>
<ellipse cx="39.4753" cy="29.5721" rx="1" ry="1.00274" transform="rotate(-135 39.4753 29.5721)" fill="#F27D7A" stroke="#F27D7A"/>
<ellipse cx="32.5018" cy="36.6358" rx="1.07398" ry="1.07692" transform="rotate(-135 32.5018 36.6358)" fill="white" stroke="white"/>
<ellipse cx="35.4391" cy="33.6983" rx="1.07398" ry="1.07692" transform="rotate(-135 35.4391 33.6983)" fill="white" stroke="white"/>
<ellipse cx="24.626" cy="37.3502" rx="1" ry="1.00274" transform="rotate(-135 24.626 37.3502)" fill="#F27D7A" stroke="#F27D7A"/>
<ellipse cx="35.9397" cy="26.0365" rx="1" ry="1.00274" transform="rotate(-135 35.9397 26.0365)" fill="#F27D7A" stroke="#F27D7A"/>
<ellipse cx="28.9662" cy="33.1002" rx="1.07398" ry="1.07692" transform="rotate(-135 28.9662 33.1002)" fill="white" stroke="white"/>
<ellipse cx="31.9034" cy="30.1629" rx="1.07398" ry="1.07692" transform="rotate(-135 31.9034 30.1629)" fill="white" stroke="white"/>
</g>
<mask id="mask2_1305_975" style="mask-type:alpha" maskUnits="userSpaceOnUse" x="50" y="54" width="78" height="75">
<path d="M79.1287 122.97C93.7576 137.599 113.828 119.268 116.82 116.276C120.14 112.956 136.891 95.8792 121.501 80.4889C107.903 66.8915 101.5 74.8206 92.4046 66.1877C86.936 60.9974 88.0595 57.9263 85.4441 55.3109C83.2688 53.1356 80.1686 53.8429 78.4277 58.6292C76.6869 63.4155 72.5418 65.0589 68.4199 63.9601C55.3672 60.4806 45.0864 77.0698 54.0595 86.0429C59.935 91.9184 60.8032 90.9372 65.8607 95.5596C72.673 101.786 68.5241 112.365 79.1287 122.97Z" fill="#C4C4C4"/>
</mask>
<g mask="url(#mask2_1305_975)">
<path d="M93.5671 101.346L93.9206 101.699L94.2742 101.346L99.224 96.396L99.5775 96.0424L99.224 95.6889L65.2827 61.7476L65.0495 61.5145L64.7434 61.6369L57.6725 64.4655L56.9685 64.7471L57.5046 65.2833L93.5671 101.346Z" fill="#F27D7A" stroke="white"/>
<line x1="98.5168" y1="97.8101" x2="46.1909" y2="45.4842" stroke="white"/>
<line x1="97.1025" y1="99.2244" x2="44.7766" y2="46.8985" stroke="white"/>
<line x1="95.6884" y1="100.638" x2="43.3625" y2="48.3125" stroke="white"/>
<path d="M88.1908 104.892C87.87 104.997 87.6156 105.072 87.4417 105.12L83.9842 101.662L101.009 84.6374L104.467 88.0949C104.418 88.2688 104.344 88.5231 104.239 88.8439C104.028 89.493 103.693 90.4128 103.205 91.4873C102.227 93.6387 100.638 96.3961 98.1904 98.8437C95.7431 101.291 92.9856 102.88 90.8342 103.858C89.7598 104.347 88.8399 104.681 88.1908 104.892Z" fill="white" stroke="white"/>
<circle cx="93.2134" cy="97.1031" r="1.25" transform="rotate(-135 93.2134 97.1031)" fill="#F27D7A"/>
<circle cx="95.3347" cy="94.9817" r="1.25" transform="rotate(-135 95.3347 94.9817)" fill="#F27D7A"/>
<circle cx="97.4561" cy="92.8604" r="1.25" transform="rotate(-135 97.4561 92.8604)" fill="#F27D7A"/>
<path d="M81.1594 91.9113L77.8605 122.608C84.4575 131.853 92.0053 131.159 94.9812 129.63C94.9812 129.63 92.5063 86.1428 90.385 81.1931C88.2636 76.2433 83.3139 72.7078 80.4855 73.4149C77.657 74.122 76.2108 76.081 75.6555 77.0703C75.1003 78.0596 74.1215 80.486 75.5357 84.0215C76.9499 87.5571 81.1594 91.9113 81.1594 91.9113Z" fill="white" stroke="#F27D7A"/>
</g>
<mask id="mask3_1305_975" style="mask-type:alpha" maskUnits="userSpaceOnUse" x="4" y="4" width="136" height="136">
<rect x="95.3347" y="139.176" width="128" height="62" transform="rotate(-135 95.3347 139.176)" fill="#C4C4C4"/>
</mask>
<g mask="url(#mask3_1305_975)">
<mask id="mask4_1305_975" style="mask-type:alpha" maskUnits="userSpaceOnUse" x="37" y="35" width="30" height="30">
<rect x="51.4941" y="64.2224" width="20" height="21" transform="rotate(-135 51.4941 64.2224)" fill="#C4C4C4"/>
</mask>
<g mask="url(#mask4_1305_975)">
<path d="M88.2083 64.725C95.1374 71.5363 83.9033 74.137 81.5462 78.011L58.9191 55.3839C57.4999 53.9647 51.0072 55.5528 48.9945 55.6614C46.3109 55.8063 43.1638 51.5926 42.6595 50.0865C42.1552 48.5803 41.5188 45.0729 45.756 42.8796C51.1159 40.1052 54.2778 45.8081 62.2063 52.7062C70.1348 59.6044 79.547 56.2109 88.2083 64.725Z" fill="white" stroke="#F27D7A"/>
</g>
</g>
</g>
</svg>
