<svg width="1024" height="1100" viewBox="0 0 1024 1100" fill="none" xmlns="http://www.w3.org/2000/svg">
<g clip-path="url(#clip0_3_91)">
<rect width="1024" height="1100" fill="#D9E7DA"/>
<rect width="510" height="517" transform="translate(247 295)" fill="#D9E7DA"/>
<path d="M505.519 295.404C503.946 295.687 504.028 295.687 506.347 295.727C508.085 295.767 508.665 295.687 508.209 295.404C507.878 295.202 507.506 295.04 507.382 295.081C507.257 295.081 506.429 295.242 505.519 295.404Z" fill="#9B3E48"/>
<path d="M509.658 296.374C508.458 296.939 508.458 296.939 509.451 296.979C510.693 296.979 514.088 296.333 513.177 296.252C512.846 296.212 512.183 296.131 511.728 296.01C511.273 295.889 510.362 296.091 509.658 296.374Z" fill="#9B3E48"/>
<path d="M511.521 298.029C511.19 298.433 510.279 298.635 508.955 298.635C507.423 298.635 507.009 298.756 507.216 299.12C507.464 299.524 507.382 299.524 506.926 299.201C506.098 298.595 491.196 300.251 490.244 301.018C489.747 301.422 488.215 301.665 485.856 301.786C482.295 301.947 482.171 301.988 481.716 303.119C481.219 304.29 480.764 304.371 478.446 303.644C477.411 303.321 473.395 304.451 473.644 305.017C473.768 305.421 473.644 305.421 472.981 305.098C472.153 304.653 472.153 304.653 473.106 303.846C474.14 302.957 472.029 304.007 467.517 306.633C466.192 307.4 465.033 307.925 464.95 307.844C464.826 307.723 466.192 306.673 467.972 305.461L471.16 303.28L469.09 303.159C467.641 303.078 465.944 303.401 463.295 304.29C460.19 305.3 459.238 305.825 457.416 307.602L455.264 309.662L454.146 308.935C453.07 308.248 452.821 308.248 448.268 308.935C444.542 309.5 443.011 309.581 440.817 309.258C438.209 308.894 437.712 308.935 431.751 310.55C428.274 311.479 425.334 312.126 425.21 312.045C424.713 311.56 425.086 311.197 426.576 310.712C427.404 310.429 427.901 310.147 427.611 310.066C427.363 309.985 425.293 310.833 422.975 311.924C420.036 313.378 418.131 314.064 416.434 314.226C415.11 314.388 413.205 314.913 412.212 315.438C410.846 316.165 410.266 316.286 409.852 315.963C409.438 315.64 408.776 315.801 407.203 316.771C406.085 317.457 405.133 317.861 405.133 317.659C405.133 317.094 406.499 316.124 409.273 314.791C410.763 314.064 412.46 313.135 413.081 312.732C414.447 311.762 414.613 311.762 414.323 312.853C414.157 313.499 414.24 313.661 414.696 313.499C415.027 313.378 416.517 312.934 418.007 312.57C420.284 311.964 420.946 311.601 422.809 309.621C424.175 308.208 425.707 307.077 427.156 306.471C430.178 305.179 429.06 305.259 424.258 306.673C416.765 308.854 399.793 315.882 398.593 317.336C398.261 317.7 397.765 317.861 397.475 317.74C397.144 317.659 395.074 318.507 392.838 319.638C387.084 322.668 378.474 327.393 378.226 327.716C377.853 328.242 371.023 332.967 370.692 332.967C370.526 332.967 370.36 332.765 370.36 332.523C370.36 332.281 369.864 332.483 369.243 332.967C366.925 334.744 360.963 338.743 358.356 340.278C352.519 343.63 338.361 355.061 328.881 364.028C322.796 369.763 313.234 380.022 312.116 381.961C311.826 382.446 311.619 382.688 311.578 382.486C311.578 382.284 311.205 382.446 310.75 382.85C310.336 383.213 310.005 383.658 310.046 383.819C310.088 383.94 309.55 384.869 308.846 385.879C308.142 386.889 307.231 388.343 306.817 389.11C306.403 389.878 305.741 390.766 305.286 391.049C304.541 391.574 302.471 394.482 302.471 395.007C302.471 395.169 303.009 394.563 303.671 393.674C304.334 392.745 305.244 391.776 305.7 391.493C306.114 391.17 306.817 390.282 307.231 389.514C308.142 387.737 312.282 382.729 313.275 382.244C315.097 381.274 315.386 381.84 313.937 383.536C313.151 384.506 311.909 386.162 311.164 387.293C310.419 388.383 309.384 389.676 308.846 390.12C308.349 390.564 307.728 391.614 307.438 392.463C307.19 393.311 306.486 394.523 305.907 395.169C305.327 395.855 304.955 396.744 305.037 397.269C305.12 398.037 305.451 398.239 306.9 398.319C308.018 398.4 309.011 398.198 309.715 397.754C310.502 397.269 310.916 397.188 311.247 397.512C311.578 397.835 311.95 397.835 312.447 397.552C313.068 397.229 313.027 397.471 312.157 398.683C310.916 400.5 310.543 400.864 310.874 399.895C311.205 399.006 311.164 399.006 308.266 400.42C305.244 401.914 304.955 401.914 304.955 400.581C304.955 399.773 301.933 394.765 301.436 394.765C301.353 394.765 299.614 397.188 297.545 400.097C295.433 403.045 292.246 407.448 290.425 409.911C286.616 414.96 284.67 418.07 284.67 419.08C284.67 419.444 282.394 423.887 279.662 428.976C276.888 434.025 273.493 440.285 272.127 442.83C270.761 445.374 269.395 447.757 269.106 448.081C267.615 449.777 259.212 472.84 256.935 481.403C256.231 484.069 255.321 487.421 254.865 488.875C252.795 495.943 250.146 510.242 248.697 522.197C247.041 535.849 246.669 563.598 247.993 573.17C248.366 575.877 248.656 578.219 248.573 578.421C248.449 579.067 249.153 584.439 249.732 586.822C250.022 588.155 250.85 592.881 251.512 597.324C252.216 601.848 253.416 607.704 254.244 610.653C257.018 620.266 259.129 628.021 259.17 628.627C259.17 628.95 259.295 629.313 259.419 629.435C259.667 629.636 260.909 633.11 265.214 645.429C269.023 656.335 277.675 673.339 286.285 686.789C290.011 692.686 293.612 698.058 294.233 698.785L295.351 700.037L295.516 696.968C295.682 693.938 295.599 693.575 292.453 684.366C287.278 669.34 287.113 668.937 285.871 666.513C284.712 664.251 284.712 664.17 285.126 661.06L285.581 657.91L281.276 648.459L276.929 639.007L279.33 629.677L281.731 620.347L279.289 609.643C277.923 603.746 275.522 594.537 273.907 589.165C270.182 576.644 270.182 576.2 273.121 566.223C275.232 559.074 275.232 559.074 282.973 545.058C288.769 534.557 292.163 527.771 296.634 517.795L302.554 504.506L302.264 501.113C302.015 498.125 301.891 497.761 301.27 497.963C300.856 498.084 297.338 499.619 293.446 501.396C289.514 503.133 286.243 504.385 286.119 504.183C285.954 503.981 286.409 503.052 287.071 502.123C288.024 500.71 288.189 500.144 287.941 499.054C287.651 497.6 287.444 497.801 290.756 496.549L291.832 496.105L290.714 494.974L289.555 493.803L291.128 493.318C292.618 492.833 292.618 492.793 291.749 492.349C290.921 491.904 291.17 491.702 294.895 490.006C298.248 488.471 300.111 487.219 305.658 482.695C309.881 479.303 315.179 475.506 319.94 472.517C324.121 469.892 327.929 467.387 328.426 466.903C328.923 466.458 331.365 463.187 333.89 459.632L338.444 453.21L336.954 450.948C336.126 449.696 334.718 447.556 333.849 446.182L332.235 443.718L332.897 441.133C333.269 439.76 333.642 438.387 333.725 438.104C333.849 437.741 334.429 437.821 335.877 438.387C338.858 439.518 347.261 440.81 351.939 440.81C354.216 440.81 357.9 440.931 360.094 441.093L364.11 441.335L365.765 444.042C367.421 446.707 367.463 446.748 370.94 448.081C372.927 448.808 374.5 449.454 374.5 449.535C374.5 449.575 373.175 450.342 371.602 451.15C369.988 451.998 368.705 452.847 368.705 453.008C368.705 453.251 372.099 458.259 372.886 459.148C373.051 459.309 374.417 459.067 375.866 458.542C378.06 457.774 378.888 457.249 380.337 455.512C381.33 454.341 382.2 453.453 382.324 453.574C382.407 453.654 382.282 455.23 382.034 457.047C380.668 466.499 379.468 475.789 379.468 477.121C379.468 477.929 380.213 481.12 381.123 484.23C382.034 487.34 384.311 495.136 386.132 501.598C387.995 508.02 389.568 513.392 389.61 513.473C389.692 513.513 392.093 512.827 394.95 511.898L400.083 510.242L401.532 504.304C402.36 501.033 403.394 496.347 403.85 493.924C406.002 482.493 406.334 481.039 406.872 480.757C407.162 480.595 413.33 476.435 420.574 471.548L433.738 462.662L437.298 457.694C439.244 454.947 440.941 452.645 441.024 452.564C441.106 452.443 442.183 452.847 443.383 453.412L445.619 454.503L448.433 453.695C450.007 453.251 451.538 452.806 451.828 452.726C452.159 452.604 451.538 451.473 450.007 449.454C448.723 447.798 447.771 446.344 447.854 446.263C447.937 446.182 449.841 447.071 452.118 448.242L456.216 450.383L457.416 454.18C458.575 457.936 458.658 458.017 462.301 461.611L465.985 465.247V472.638V479.989H469.049H472.112L474.886 476.798L477.618 473.607L479.481 475.546L481.302 477.485L483.165 491.137L485.028 504.829L483.91 509.596L482.792 514.362L486.973 518.481L491.154 522.601L493.721 530.679L496.329 538.798L501.462 542.312C506.057 545.462 506.761 545.826 507.961 545.624C510.403 545.139 510.403 545.301 508.334 537.303L506.429 529.872L503.283 526.64C501.007 524.257 499.226 522.884 496.619 521.47C494.673 520.42 492.893 519.33 492.644 519.047C492.396 518.764 490.989 515.452 489.54 511.696L486.89 504.829L489.54 497.842L492.189 490.895L493.472 492.753C494.549 494.328 495.459 494.934 499.516 496.953C502.29 498.286 505.726 500.386 507.63 501.921C510.817 504.426 511.024 504.547 511.769 503.9C512.515 503.254 512.515 503.254 511.811 504.062C511.149 504.829 511.149 505.112 511.976 508.667C512.432 510.767 512.887 512.544 512.929 512.625C513.011 512.665 513.963 511.373 515.081 509.676C516.199 508.02 517.275 506.647 517.482 506.647C517.689 506.647 518.476 507.011 519.262 507.495C520.173 508.061 520.835 508.222 521.166 507.98C521.912 507.414 532.385 499.296 532.716 499.013C532.882 498.892 532.633 495.297 532.178 491.097L531.35 483.422L525.844 477.97C520.338 472.557 520.338 472.517 518.683 468.437L516.985 464.318L521.705 460.238L526.382 456.118L530.605 456.239L534.869 456.361L534.744 458.986C534.62 461.975 534.993 461.935 535.945 458.865L536.607 456.765L539.463 456.401C541.078 456.239 544.141 455.432 546.377 454.664L550.351 453.251L549.978 451.998C549.274 449.615 549.564 449.494 551.468 451.312L553.331 453.129L559.251 450.221L565.17 447.354L568.524 442.184C570.552 438.993 572.829 436.085 574.319 434.711C576.347 432.773 577.134 431.642 579.162 427.32C580.528 424.533 581.522 422.15 581.398 422.029C581.315 421.907 579.701 421.625 577.838 421.342C575.975 421.1 574.443 420.777 574.443 420.655C574.443 420.494 575.685 419.767 577.217 419.04L579.949 417.747L576.265 415.607C574.195 414.435 572.208 413.385 571.794 413.223C571.338 413.062 571.09 412.86 571.173 412.739C571.256 412.658 573.036 413.022 575.064 413.587C577.134 414.112 578.955 414.556 579.204 414.556C579.411 414.556 578.127 413.062 576.306 411.204C574.485 409.386 571.711 406.599 570.138 405.024L567.323 402.156L572.539 397.956L577.755 393.755L571.09 393.634L564.384 393.513L562.273 392.059C561.114 391.251 560.079 390.524 559.996 390.443C559.458 390.08 565.916 384.425 568.648 382.85L571.752 381.032L572.249 382.163C572.912 383.617 572.912 384.506 572.166 386.768C571.835 387.858 571.67 388.706 571.794 388.706C571.877 388.706 574.071 387.616 576.637 386.323L581.274 383.94L584.171 386.525C586.448 388.626 586.945 389.231 586.448 389.514C584.006 390.887 584.088 391.009 587.649 391.453C589.511 391.655 591.167 391.938 591.25 392.059C591.374 392.18 592.119 395.048 592.906 398.44C593.692 401.833 594.396 404.661 594.479 404.741C594.603 404.863 602.882 401.025 603.338 400.622C603.669 400.339 595.969 388.989 594.231 387.252L592.161 385.152L595.638 380.79C597.584 378.366 599.571 375.62 600.15 374.691L601.102 373.035L605.904 372.752L610.706 372.469L613.066 364.674L615.467 356.838L611.907 349.931L608.347 343.025L605.283 341.57L602.179 340.157L600.357 341.207C598.163 342.459 598.039 342.459 598.039 341.449C598.039 340.48 597.335 340.116 593.651 339.268L590.67 338.541L593.775 333.21L596.838 327.838L602.468 327.313C607.85 326.788 608.222 326.828 611.493 327.636C616.709 328.969 620.02 328.726 616.667 327.272C615.011 326.545 614.39 325.657 613.894 323.152C613.687 322.102 613.728 322.062 615.26 322.062C616.377 322.062 617.495 322.466 618.737 323.274C620.972 324.687 621.469 324.162 619.606 322.304C618.903 321.577 618.323 320.931 618.323 320.81C618.323 320.689 618.944 320.689 619.731 320.769C621.097 320.931 621.179 321.052 624.201 327.434L627.265 333.977L635.337 340.965C639.766 344.802 643.864 348.275 644.444 348.72L645.479 349.487L644.154 344.277C642.416 337.572 641.339 336.077 636.206 333.25C632.812 331.392 627.265 326.707 627.637 326.06C627.761 325.939 628.672 325.576 629.707 325.333C631.28 324.97 631.777 324.97 632.853 325.535C633.557 325.859 634.219 326.101 634.302 325.98C634.426 325.899 633.598 324.849 632.522 323.637C629.045 319.76 629.169 319.921 630.452 320.406C631.073 320.648 631.57 320.769 631.57 320.648C631.57 320.406 625.526 317.619 623.084 316.771C621.966 316.367 621.386 316.044 621.842 316.003C622.38 315.963 621.883 315.559 620.393 314.791C617.33 313.216 617.992 313.297 622.338 314.993C624.326 315.761 625.981 316.367 626.023 316.286C626.313 316.003 619.234 312.812 617.909 312.61C617.123 312.489 612.776 311.197 608.264 309.743C603.71 308.289 599.446 307.117 598.743 307.158L597.418 307.198L598.95 307.885C599.819 308.289 600.606 308.693 600.73 308.773C600.895 308.975 598.163 308.571 593.278 307.723L592.037 307.521L593.071 308.369C594.272 309.339 594.313 309.379 588.808 307.279C585.744 306.148 584.585 305.906 581.895 305.906C579.783 305.906 577.051 305.542 574.153 304.855C569.186 303.644 569.186 303.644 568.027 304.088C567.53 304.29 567.323 304.25 567.53 304.048C567.861 303.724 559.996 302.594 559.582 302.917C559.499 302.997 559.996 303.361 560.741 303.765C561.445 304.169 562.024 304.573 562.024 304.694C562.024 304.815 559.789 305.138 557.057 305.421C552.131 305.906 552.089 305.906 544.555 304.492C540.374 303.684 535.696 302.795 534.082 302.472C532.509 302.149 529.735 301.866 527.997 301.866C525.306 301.866 524.851 301.947 525.016 302.472C525.223 302.957 524.975 302.957 523.526 302.311C521.953 301.624 521.58 301.624 518.683 302.149C516.985 302.472 515.495 302.674 515.412 302.594C515.33 302.513 517.192 301.826 519.511 301.099L523.733 299.726L521.994 298.999C520.38 298.312 515.205 297.424 513.011 297.424C512.473 297.424 511.811 297.706 511.521 298.029ZM467.186 308.571C467.476 308.854 467.144 308.975 461.059 311.237C455.761 313.216 454.891 313.418 453.691 313.055C452.946 312.812 452.449 312.53 452.573 312.408C452.697 312.287 454.477 311.883 456.506 311.479C459.403 310.954 460.645 310.51 462.177 309.42C463.75 308.289 464.371 308.087 465.571 308.248C466.358 308.369 467.103 308.491 467.186 308.571ZM469.297 309.783C469.297 310.914 468.676 310.793 468.345 309.541C468.221 309.016 468.345 308.733 468.718 308.733C469.049 308.733 469.297 309.137 469.297 309.783ZM402.235 316.003C401.904 316.205 401.449 316.407 401.2 316.407C400.994 316.407 401.076 316.205 401.407 316.003C401.739 315.801 402.235 315.599 402.442 315.599C402.691 315.599 402.567 315.801 402.235 316.003ZM385.222 325.859C384.518 326.505 380.337 327.878 380.006 327.595C379.633 327.191 385.222 324.768 385.636 325.131C385.76 325.253 385.553 325.576 385.222 325.859ZM346.433 361.645C345.44 362.089 344.529 362.816 344.322 363.381C344.115 363.947 342.956 364.835 341.466 365.603C338.775 367.017 338.692 367.138 338.278 370.611L338.03 372.914L340.1 373.964C341.59 374.691 342.418 375.418 343.039 376.549C343.784 378.043 343.825 378.245 343.205 379.699C342.335 381.678 342.501 381.598 341.052 380.871C339.851 380.265 339.644 380.305 337.492 381.234L335.174 382.244V380.669C335.174 379.215 335.05 379.053 333.849 378.811C333.104 378.649 332.317 378.407 332.152 378.326C331.945 378.205 332.731 377.195 333.849 376.024C335.629 374.247 336.291 372.954 336.043 371.702C336.002 371.581 334.263 371.783 332.11 372.146L328.219 372.792L329.295 371.5C332.317 367.986 336.705 363.301 337.45 362.856C338.196 362.372 338.196 362.412 337.74 362.937C337.45 363.301 337.326 363.826 337.492 364.189C337.657 364.634 337.326 365.037 336.416 365.482C335.298 366.047 333.518 368.188 333.518 368.996C333.518 369.157 334.594 368.834 335.877 368.349C337.906 367.501 338.32 367.178 339.024 365.563C339.769 363.907 340.1 363.624 343.205 362.291C345.067 361.523 346.93 360.877 347.386 360.877C347.882 360.877 347.551 361.2 346.433 361.645ZM367.959 362.21C368.622 363.503 368.58 363.624 367.752 364.835C366.635 366.451 361.833 368.915 359.804 368.915C359.018 368.915 358.356 369.036 358.356 369.198C358.314 369.4 357.859 371.5 357.321 373.964L356.286 378.407L357.569 379.538C358.273 380.184 358.769 380.749 358.687 380.79C358.645 380.871 357.321 381.315 355.83 381.8L353.098 382.688L350.863 388.222L348.586 393.755L344.902 394.805L341.176 395.896L340.928 394.603C340.762 393.917 340.555 392.543 340.431 391.534L340.224 389.716L343.867 386.687C347.675 383.496 348.006 382.971 348.006 379.497C348.006 378.77 348.876 376.145 349.911 373.641L351.774 369.077L356.782 366.088C360.881 363.624 365.89 361.079 367.09 360.877C367.214 360.837 367.628 361.443 367.959 362.21ZM311.578 382.809C311.578 382.89 311.247 383.213 310.874 383.496C310.212 384.021 310.17 383.981 310.709 383.334C311.247 382.688 311.578 382.486 311.578 382.809ZM323.873 421.827C324.535 421.827 324.825 422.15 325.032 423.119C325.197 423.846 325.86 426.754 326.563 429.582L327.764 434.711L330.413 435.923L333.062 437.094L328.881 441.093C326.605 443.274 324.618 445.051 324.493 445.011C323.583 444.89 318.781 443.436 318.491 443.234C318.284 443.072 318.615 441.82 319.195 440.447C319.733 439.114 320.147 437.983 320.023 437.983C319.94 437.983 319.319 439.033 318.657 440.285L317.415 442.628V441.012C317.373 435.196 318.201 426.633 319.029 424.089L319.94 421.342L321.43 421.584C322.258 421.706 323.376 421.827 323.873 421.827Z" fill="#9B3E48"/>
<path d="M549.192 299.282C549.192 299.887 551.137 300.251 554.49 300.251C558.257 300.251 557.264 299.605 552.834 299.16C550.102 298.918 549.192 298.918 549.192 299.282Z" fill="#9B3E48"/>
<path d="M470.042 299.322C470.332 299.443 470.704 299.403 470.829 299.281C470.994 299.16 470.746 299.039 470.291 299.08C469.835 299.08 469.711 299.201 470.042 299.322Z" fill="#9B3E48"/>
<path d="M463.916 300.049C460.604 300.615 457.499 301.382 458.534 301.422C458.865 301.422 461.473 300.978 464.33 300.453C467.186 299.928 468.966 299.524 468.262 299.524C467.6 299.524 465.613 299.766 463.916 300.049Z" fill="#9B3E48"/>
<path d="M450.296 303.28C448.64 303.805 447.192 304.331 447.067 304.452C446.943 304.532 447.357 304.936 447.895 305.3C448.889 305.946 449.054 305.906 452.283 304.29C454.146 303.402 455.636 302.594 455.636 302.473C455.636 302.028 453.194 302.392 450.296 303.28Z" fill="#9B3E48"/>
<path d="M609.63 342.297C609.63 344.075 625.236 364.957 626.188 364.472C628.548 363.179 628.589 363.341 624.781 358.696C622.835 356.313 621.221 354.253 621.221 354.172C621.221 354.051 622.173 354.415 623.332 355.021C624.491 355.586 625.526 355.949 625.609 355.869C625.816 355.707 610.251 341.045 609.878 341.045C609.754 341.045 609.63 341.611 609.63 342.297Z" fill="#9B3E48"/>
<path d="M626.188 366.249C626.188 366.37 626.768 367.905 627.43 369.723C628.631 372.873 629.003 375.539 628.382 375.902C628.175 375.983 628.258 376.024 628.506 375.943C628.796 375.902 630.659 376.266 632.646 376.791C634.674 377.316 636.454 377.639 636.579 377.478C636.703 377.316 637.572 376.226 638.566 375.095C640.594 372.671 640.925 373.116 635.916 371.298C634.55 370.813 631.818 369.44 629.831 368.228C627.803 367.057 626.188 366.168 626.188 366.249Z" fill="#9B3E48"/>
<path d="M628.258 378.003V379.457L629.583 378.77L630.907 378.084L629.955 377.357C628.589 376.266 628.258 376.387 628.258 378.003Z" fill="#9B3E48"/>
<path d="M631.404 382.325C631.28 383.738 631.073 386.808 630.907 389.191L630.659 393.553H628.092C625.526 393.553 625.443 393.594 620.765 396.704C617.412 398.966 615.177 400.864 612.983 403.287C611.203 405.226 609.092 407.084 608.057 407.609C606.318 408.498 606.277 408.579 606.898 409.427C607.229 409.912 608.595 411.891 609.92 413.829C611.244 415.768 612.403 417.384 612.528 417.384C612.652 417.384 613.107 416.172 613.604 414.637L614.473 411.931L612.61 409.184C611.575 407.69 610.83 406.398 610.913 406.317C610.996 406.236 614.018 405.509 617.661 404.742L624.201 403.368L625.774 405.751L627.347 408.134L628.051 405.065C628.631 402.601 628.879 402.035 629.459 402.197C632.687 403.126 635.585 403.651 636.289 403.489C636.786 403.368 637.738 402.924 638.441 402.48L639.683 401.712L638.607 393.836L637.531 385.96L634.716 382.89C633.184 381.194 631.86 379.821 631.777 379.821C631.694 379.821 631.528 380.951 631.404 382.325Z" fill="#9B3E48"/>
<path d="M620.6 406.478C620.144 406.68 618.696 407.246 617.329 407.731L614.887 408.579L616.833 409.75C617.868 410.396 618.82 410.921 618.903 410.921C618.944 410.921 619.813 409.831 620.765 408.498C622.463 406.155 622.421 405.711 620.6 406.478Z" fill="#9B3E48"/>
<path d="M579.287 444.243L577.3 447.273L578.831 450.706C579.701 452.604 580.487 454.018 580.611 453.897C580.735 453.776 581.605 450.989 582.557 447.677L584.254 441.699L583.012 441.457C582.35 441.335 581.688 441.214 581.522 441.214C581.398 441.214 580.404 442.587 579.287 444.243Z" fill="#9B3E48"/>
<path d="M531.847 465.691C530.853 467.347 530.149 468.801 530.191 468.841C530.273 468.922 531.847 468.761 533.668 468.438C535.489 468.155 537.187 467.912 537.476 467.912C537.766 467.872 538.263 467.024 538.594 465.933C538.925 464.883 539.298 463.712 539.463 463.308C539.712 462.702 539.463 462.621 536.69 462.621H533.627L531.847 465.691Z" fill="#9B3E48"/>
<path d="M580.942 471.184C580.611 472.355 580.032 474.496 579.618 475.95L578.914 478.616L581.149 484.028L583.385 489.481L587.069 490.774C592.036 492.47 592.161 492.47 591.871 490.572C591.664 489.279 591.457 489.077 590.339 488.956C589.222 488.835 588.932 488.512 587.607 485.927L586.117 482.978L587.442 476.354L588.766 469.69L587.69 469.447C587.11 469.286 585.496 469.165 584.088 469.124L581.522 469.084L580.942 471.184Z" fill="#9B3E48"/>
<path d="M592.243 489.319C592.243 489.481 592.616 489.885 593.113 490.208C593.568 490.531 594.934 491.743 596.176 492.874C597.377 494.005 598.453 494.934 598.536 494.934C598.784 494.934 597.749 490.087 597.459 489.804C597.128 489.44 592.243 488.996 592.243 489.319Z" fill="#9B3E48"/>
<path d="M582.722 491.177C582.722 491.824 585.786 496.145 586.034 495.863C586.241 495.701 586.655 494.853 586.986 494.045L587.607 492.551L585.165 491.743C583.84 491.299 582.722 491.056 582.722 491.177Z" fill="#9B3E48"/>
<path d="M590.091 501.154C590.008 502.85 590.091 504.183 590.215 504.143C590.381 504.062 591.54 503.093 592.782 501.921L595.141 499.861L593.361 499.256C592.409 498.932 591.291 498.529 590.919 498.367C590.339 498.125 590.215 498.488 590.091 501.154Z" fill="#9B3E48"/>
<path d="M574.112 507.091C568.938 514.321 569.103 514.321 576.803 507.172L580.239 504.022L579.742 502.285C579.452 501.356 579.121 500.588 578.997 500.588C578.873 500.588 576.679 503.537 574.112 507.091Z" fill="#9B3E48"/>
<path d="M594.355 504.91L592.243 507.253L593.982 508.747C594.934 509.555 595.762 510.201 595.845 510.161C596.052 509.959 596.838 502.891 596.673 502.729C596.549 502.648 595.514 503.618 594.355 504.91Z" fill="#9B3E48"/>
<path d="M402.939 508.667C403.891 510.121 404.429 510.363 404.636 509.353C404.719 508.949 404.264 508.465 403.436 508.02L402.111 507.374L402.939 508.667Z" fill="#9B3E48"/>
<path d="M605.697 509.313L605.946 510.929L602.096 513.231L598.246 515.533L597.542 513.877L596.797 512.261L593.899 515.533C592.285 517.391 591.043 518.926 591.126 519.007C591.209 519.128 592.492 518.643 593.982 518.037C598.577 516.018 597.915 515.735 602.013 521.147C604.041 523.813 605.821 525.994 605.946 526.035C606.07 526.035 606.36 524.459 606.566 522.48L606.939 518.966L608.222 521.107L609.547 523.288L610.251 521.026L610.996 518.764L608.595 513.796C605.573 507.536 605.407 507.253 605.697 509.313Z" fill="#9B3E48"/>
<path d="M402.567 513.958L401.035 517.189L402.07 520.501C402.649 522.319 403.27 523.934 403.436 524.096C403.601 524.258 405.05 523.086 406.706 521.471L409.645 518.562L407.079 514.644C405.671 512.504 404.429 510.727 404.305 510.727C404.181 510.727 403.394 512.181 402.567 513.958Z" fill="#9B3E48"/>
<path d="M564.798 524.702C560.7 529.185 560.203 529.549 558.175 530.033C556.56 530.437 554.449 531.689 549.73 535.042L543.396 539.525V542.474C543.396 544.089 543.313 545.422 543.189 545.422C543.065 545.422 541.202 544.695 539.091 543.847L535.158 542.231L534.744 544.332C534.496 545.503 533.958 548.128 533.502 550.188L532.716 553.985L535.2 559.276C536.524 562.225 537.849 564.81 538.139 565.052C539.422 566.223 554.987 570.464 557.926 570.464C558.381 570.464 559.996 569.858 561.528 569.091L564.343 567.718L564.922 563.719C565.46 559.882 565.584 559.559 569.227 553.177L572.994 546.594L575.395 546.876C576.679 546.997 577.755 546.997 577.755 546.876C577.755 546.715 575.768 544.049 573.367 540.939L568.979 535.244L570.097 534.113C570.718 533.467 572.994 531.73 575.147 530.195L579.079 527.448L575.809 526.519C570.8 525.065 570.883 525.146 570.055 522.4L569.269 519.895L564.798 524.702Z" fill="#9B3E48"/>
<path d="M468.883 526.64C468.883 526.721 475.382 535.688 483.33 546.553L497.819 566.264L504.318 571.918C507.92 574.988 511.19 577.775 511.604 578.058C512.142 578.421 513.053 578.502 514.791 578.3L517.234 578.058L517.648 574.544C517.896 572.645 518.227 569.98 518.393 568.647L518.641 566.223L515.081 565.254C513.136 564.729 511.521 564.204 511.521 564.042C511.521 563.921 511.314 562.144 511.107 560.165C510.776 557.337 510.362 555.843 509.161 553.339L507.588 550.188L504.815 550.39C503.242 550.471 502 550.471 502 550.39C502 550.309 502.455 549.825 503.035 549.34L504.028 548.451L491.568 538.152L479.067 527.893L474.306 527.166C468.842 526.358 468.883 526.358 468.883 526.64Z" fill="#9B3E48"/>
<path d="M601.765 545.422C600.978 545.584 596.342 546.351 591.54 547.078L582.722 548.411L579.825 557.135L576.968 565.819L577.92 569.051C579.949 575.594 580.487 577.129 580.777 577.008C580.942 576.967 581.439 576.927 581.853 576.927C582.557 576.927 582.888 576.038 584.213 570.464C585.082 566.91 585.868 564.002 585.993 564.002C586.117 564.002 586.903 565.698 587.69 567.758L589.139 571.474L592.161 571.595C593.775 571.676 595.141 571.636 595.141 571.515C595.141 571.434 593.61 568.768 591.788 565.617C589.925 562.507 588.476 559.842 588.559 559.801C588.642 559.72 590.629 558.711 592.989 557.58C595.307 556.449 597.211 555.439 597.211 555.399C597.211 555.318 594.686 555.883 591.54 556.61C588.435 557.378 585.786 557.822 585.62 557.66C585.33 557.337 583.964 551.44 583.964 550.471C583.964 550.027 585.496 549.905 592.782 549.905L601.558 549.865L602.717 548.532C603.379 547.846 604.248 546.755 604.704 546.109L605.532 545.018L604.373 545.059C603.752 545.099 602.551 545.26 601.765 545.422Z" fill="#9B3E48"/>
<path d="M616.295 546.876C616.295 547.32 616.419 547.442 616.543 547.118C616.667 546.836 616.626 546.472 616.502 546.351C616.377 546.19 616.253 546.432 616.295 546.876Z" fill="#9B3E48"/>
<path d="M616.129 548.734C615.963 549.3 616.377 550.471 617.371 552.167C618.944 554.954 619.772 555.439 618.364 552.733C617.868 551.844 617.495 550.996 617.495 550.875C617.495 550.754 618.364 550.673 619.482 550.673H621.428L619.151 549.259C617.909 548.492 616.75 547.846 616.626 547.846C616.46 547.846 616.253 548.25 616.129 548.734Z" fill="#9B3E48"/>
<path d="M633.35 555.641C631.942 556.812 630.7 557.862 630.576 557.984C630.452 558.105 632.853 558.791 635.958 559.559C639.021 560.286 641.629 561.053 641.712 561.215C641.836 561.376 640.222 562.103 638.193 562.83C636.123 563.557 634.467 564.284 634.467 564.406C634.467 564.527 635.295 565.86 636.289 567.395L638.069 570.141L640.097 567.596L642.126 565.011L642.25 567.071L642.374 569.131L650.115 572.484C654.379 574.342 657.98 575.957 658.146 576.119C658.353 576.24 658.85 578.34 659.305 580.723C659.968 584.359 660.05 585.207 659.595 585.57C659.264 585.813 658.312 586.863 657.484 587.913L655.911 589.811L657.111 589.488C657.732 589.286 658.767 588.923 659.388 588.721C660.174 588.398 660.547 588.398 660.671 588.761C660.754 589.084 661.541 588.923 663.238 588.317C664.562 587.832 665.68 587.469 665.722 587.509C665.804 587.59 666.425 588.882 667.129 590.417C668.247 592.881 668.495 593.164 669.323 592.921C669.861 592.8 671.765 592.679 673.587 592.679H676.899L674.953 590.781L673.007 588.882L677.188 587.348C679.465 586.499 681.493 585.813 681.659 585.813C681.825 585.813 684.184 588.438 686.875 591.669L691.801 597.526H694.326C695.734 597.526 698.052 597.647 699.501 597.809L702.15 598.051L698.631 594.052C696.727 591.871 694.243 589.004 693.126 587.751L691.056 585.449L691.925 582.097C692.505 579.673 692.629 578.664 692.256 578.462C692.008 578.3 686.916 574.867 680.955 570.787C671.476 564.365 669.323 563.073 664.231 560.892C661.002 559.478 658.187 558.468 657.898 558.63C657.649 558.791 655.166 560.69 652.351 562.911C649.536 565.092 647.176 566.829 647.135 566.748C647.093 566.708 646.307 564.729 645.396 562.386L643.74 558.145L640.263 555.802C638.359 554.55 636.579 553.5 636.372 553.5C636.123 553.541 634.757 554.47 633.35 555.641Z" fill="#9B3E48"/>
<path d="M515.702 559.922L514.295 561.053L516.944 562.992C518.393 564.083 519.842 565.133 520.131 565.335C520.463 565.577 520.297 564.89 519.759 563.558C519.262 562.346 518.683 560.771 518.434 560.043C517.896 558.468 517.524 558.428 515.702 559.922Z" fill="#9B3E48"/>
<path d="M617.992 565.819C617.247 567.395 617.371 568.041 618.447 568.041C618.944 568.041 621.593 568.324 624.325 568.647C627.016 568.97 629.334 569.172 629.376 569.091C629.459 569.01 629.293 568.243 629.003 567.395L628.465 565.819L624.532 565.335C618.696 564.648 618.53 564.648 617.992 565.819Z" fill="#9B3E48"/>
<path d="M706.166 573.938L704.427 576.523L700.37 576.563L696.355 576.604L700.08 577.775C702.15 578.421 703.93 578.946 704.096 578.946C704.427 578.946 708.277 571.676 708.07 571.474C707.987 571.393 707.159 572.524 706.166 573.938Z" fill="#9B3E48"/>
<path d="M518.641 580.441C516.489 581.451 514.833 582.299 514.916 582.379C515.33 582.703 557.14 591.548 557.305 591.346C557.305 591.306 557.222 590.296 557.098 589.125L556.85 586.984L548.778 583.793L540.705 580.643L532.012 579.593C527.252 578.987 523.153 578.542 522.905 578.583C522.698 578.583 520.752 579.431 518.641 580.441Z" fill="#9B3E48"/>
<path d="M582.308 590.296C581.812 590.942 581.439 591.589 581.522 591.629C581.605 591.71 582.722 591.871 583.964 591.993C585.91 592.154 586.903 591.952 590.588 590.619L594.934 589.084H589.056L583.178 589.044L582.308 590.296Z" fill="#9B3E48"/>
<path d="M569.103 590.942C568.855 591.75 568.731 592.517 568.813 592.598C569.02 592.8 576.14 590.256 576.72 589.771C576.927 589.609 575.395 589.448 573.284 589.448H569.517L569.103 590.942Z" fill="#9B3E48"/>
<path d="M607.767 590.336L604.455 590.66L600.854 594.214C598.867 596.153 597.211 597.849 597.211 598.051C597.211 598.213 597.997 597.849 598.991 597.243C599.943 596.678 603.545 594.739 606.939 593.002C610.541 591.185 612.693 589.892 612.114 589.892C611.534 589.933 609.588 590.135 607.767 590.336Z" fill="#9B3E48"/>
<path d="M669.489 610.734L667.46 619.943L663.693 625.274C661.623 628.223 659.802 630.606 659.636 630.646C659.222 630.646 645.189 619.902 644.651 619.175C644.444 618.852 645.52 616.833 647.838 613.278C651.688 607.341 651.688 607.3 648.459 607.26C647.632 607.22 643.74 606.129 639.808 604.796C635.875 603.463 632.605 602.373 632.522 602.373C632.439 602.373 632.853 603.261 633.433 604.392C634.012 605.483 634.468 606.452 634.468 606.493C634.468 606.573 633.019 606.573 631.239 606.493L628.01 606.371L624.905 610.249L621.759 614.126L622.338 617.156C622.67 618.852 622.877 620.306 622.752 620.387C622.67 620.468 621.221 619.983 619.524 619.296L616.46 618.085L614.929 619.741C614.101 620.629 613.314 621.235 613.231 621.074C613.107 620.912 612.9 619.337 612.735 617.6C612.445 614.773 612.362 614.49 611.534 614.49C611.079 614.49 609.754 614.369 608.595 614.248L606.525 614.005L604.497 617.802L602.427 621.639L598.908 622.81C596.963 623.457 595.307 624.224 595.307 624.507C595.265 624.749 595.224 626.405 595.183 628.102L595.1 631.252L593.817 628.304C593.113 626.728 592.409 625.395 592.285 625.395C592.161 625.395 590.008 628.425 587.524 632.06C585.041 635.735 583.012 638.724 582.971 638.724C582.929 638.724 578.831 639.653 573.864 640.744C565.75 642.561 564.218 643.046 558.961 645.429C555.774 646.883 552.917 648.257 552.71 648.418C552.462 648.62 551.551 650.922 550.682 653.548L549.109 658.314L550.558 662.232L551.965 666.19H549.73C548.529 666.19 547.536 666.271 547.536 666.352C547.536 666.432 549.399 671.602 551.634 677.863L555.774 689.213L554.118 693.656C553.248 696.119 552.503 698.26 552.503 698.462C552.503 698.745 561.362 701.33 562.356 701.33C562.645 701.33 564.674 700.361 566.868 699.149C570.511 697.21 572.166 696.645 582.515 693.938C590.836 691.717 596.921 690.424 604.041 689.253L613.976 687.637L618.116 689.051L622.256 690.465L624.119 695.756L625.981 701.007L630.535 696.443C633.019 693.898 634.882 692.121 634.675 692.444C634.468 692.767 633.184 694.787 631.777 696.887C628.341 702.097 628.382 702.017 629.127 701.532C629.459 701.29 630.618 700.401 631.694 699.553C632.812 698.704 633.847 698.139 634.012 698.341C634.178 698.543 634.675 699.957 635.088 701.491C635.668 703.673 635.751 705.046 635.544 707.994L635.295 711.71L637.862 712.841C643.326 715.184 642.747 715.063 645.024 714.013L647.052 713.043L648.584 714.497L650.157 715.992L652.144 715.143C653.22 714.699 655.911 713.487 658.063 712.518C661.872 710.781 662.079 710.579 664.314 707.55C665.639 705.773 671.683 698.179 677.809 690.667L688.986 676.974L690.725 669.866L692.463 662.757L691.304 657.102L690.145 651.447L688.407 651.569L686.627 651.73V646.681V641.673L683.315 638.765L680.045 635.857L680.293 627.455L680.541 619.054L678.016 617.721C675.201 616.186 675.284 616.348 674.787 610.451C674.58 607.704 674.249 606.452 673.132 604.271C672.345 602.777 671.683 601.565 671.6 601.565C671.558 601.565 670.606 605.685 669.489 610.734Z" fill="#9B3E48"/>
<path d="M626.644 603.787C627.14 604.554 627.596 605.2 627.678 605.2C628.092 605.2 629.831 602.979 629.624 602.696C629.541 602.494 628.631 602.373 627.637 602.373H625.816L626.644 603.787Z" fill="#9B3E48"/>
<path d="M297.71 612.026L297.42 618.085L294.15 620.953C292.37 622.528 290.88 624.063 290.88 624.345C290.88 624.628 291.873 628.304 293.115 632.504C294.937 638.805 295.392 640.865 295.558 644.419L295.806 648.701L298.993 655.002L302.222 661.262L305.286 661.545C306.942 661.707 308.432 661.707 308.597 661.586C308.846 661.343 307.273 651.407 303.754 630.646L302.222 621.558L303.174 621.033C303.837 620.67 304.085 620.266 303.961 619.822C303.547 618.61 298.414 606.331 298.207 606.17C298.124 606.048 297.876 608.714 297.71 612.026Z" fill="#9B3E48"/>
<path d="M756.255 631.212C755.717 632.989 755.8 633.393 756.545 632.504C756.834 632.181 757 631.414 756.917 630.768C756.752 629.677 756.752 629.717 756.255 631.212Z" fill="#9B3E48"/>
<path d="M714.403 705.894C713.658 708.035 712.872 709.166 709.643 712.68C706.745 715.83 705.71 717.244 705.503 718.375C705.338 719.263 704.551 720.677 703.599 721.768C701.115 724.554 701.612 724.433 704.758 721.525C711.92 714.82 715.604 711.226 715.604 710.943C715.604 710.741 715.066 710.62 714.403 710.62H713.203L714.403 707.106C715.066 705.207 715.521 703.551 715.438 703.471C715.356 703.39 714.859 704.48 714.403 705.894Z" fill="#9B3E48"/>
<path d="M698.797 722.656C697.845 723.504 692.422 727.624 686.71 731.825C680.997 736.025 676.36 739.499 676.402 739.539C676.443 739.58 677.851 739.378 679.548 739.095C682.487 738.57 682.735 738.449 684.722 736.389C685.882 735.177 687.703 733.763 688.821 733.238C690.435 732.39 690.766 732.027 690.766 731.138C690.766 730.128 690.932 730.007 692.132 730.007C694.037 730.007 698.921 725.806 700.163 723.1C700.701 722.01 700.95 721.121 700.784 721.121C700.619 721.162 699.708 721.848 698.797 722.656Z" fill="#9B3E48"/>
<path d="M642.581 721.969C642.084 723.585 640.677 729.321 640.76 729.401C640.843 729.442 642.043 729.603 643.409 729.724L645.976 729.967L648.873 726.21L651.813 722.414L650.488 722.212C649.743 722.091 647.714 721.848 645.976 721.687C643.451 721.485 642.705 721.566 642.581 721.969Z" fill="#9B3E48"/>
<path d="M482.13 787.402C484.986 788.735 487.884 789.947 488.546 790.109C489.747 790.351 489.705 790.351 487.925 790.674C486.559 790.916 485.566 790.836 484.117 790.311C482.006 789.583 482.709 789.462 473.975 792.088C470.663 793.057 470.125 793.34 470.125 794.107C470.125 794.632 469.38 795.561 468.138 796.611L466.11 798.227L462.632 797.419C459.486 796.692 458.948 796.409 457.085 794.592C455.098 792.734 454.85 792.613 452.78 792.613C446.032 792.613 433.034 791.038 427.694 789.543C427.114 789.382 427.321 789.664 428.274 790.472L429.722 791.684L427.984 792.613C427.032 793.138 426.245 793.703 426.245 793.905C426.245 794.067 426.99 794.592 427.942 795.036C428.894 795.521 429.557 795.965 429.474 796.046C429.391 796.127 427.611 795.682 425.5 795.077C421.609 793.865 420.739 793.905 422.933 795.157C423.596 795.561 424.382 796.086 424.672 796.369C425.293 796.935 431.916 798.671 433.324 798.631C434.235 798.591 434.235 798.55 433.075 798.025C431.834 797.46 431.834 797.46 433.696 797.702C435.973 797.985 446.446 800.529 448.765 801.337C450.42 801.943 455.471 802.832 469.711 804.932C474.968 805.699 477.742 806.305 479.812 807.194C482.42 808.284 483.455 808.406 493.555 809.213L504.442 810.062L509.575 809.213C512.432 808.729 515.371 808.365 516.116 808.325C517.275 808.325 517.399 808.244 516.696 807.961C515.992 807.678 516.116 807.598 517.317 807.557L518.765 807.477L517.317 806.992C515.909 806.507 515.95 806.467 519.759 805.942C521.87 805.659 523.36 805.295 523.029 805.134C522.16 804.649 516.571 804.003 508.002 803.316C494.673 802.266 496.039 802.63 494.3 799.802L492.769 797.338L493.804 796.49C494.342 796.006 495.335 795.279 495.998 794.834C496.95 794.148 497.115 793.784 496.908 792.936C496.66 792.007 496.287 791.845 493.928 791.401C490.947 790.836 489.995 790.189 492.148 790.189C492.893 790.189 493.969 790.068 494.507 789.907C496.08 789.503 487.304 786.231 482.751 785.504C476.583 784.575 476.5 784.777 482.13 787.402Z" fill="#9B3E48"/>
<path d="M500.551 789.179C500.344 789.26 499.226 789.462 498.067 789.583L495.998 789.866L497.653 790.472C498.564 790.755 499.516 791.239 499.765 791.522C500.013 791.805 500.841 793.703 501.627 795.804C502.373 797.863 503.2 799.802 503.49 800.085C504.401 800.974 512.515 801.62 516.282 801.095C518.103 800.852 526.424 800.57 534.91 800.489C548.364 800.327 549.937 800.408 547.743 800.852C545.342 801.377 545.3 801.377 546.915 801.458L548.571 801.579L545.88 802.508L543.189 803.478L549.399 803.235C553.083 803.114 556.519 802.791 557.885 802.387C559.127 802.064 560.534 801.781 560.989 801.781C561.445 801.822 564.591 801.943 567.944 802.104L574.071 802.387L567.323 804.568C563.597 805.78 559.541 806.83 558.299 806.951C555.567 807.234 538.76 810.465 539.008 810.667C539.091 810.748 541.078 810.546 543.438 810.223C545.797 809.9 549.067 809.496 550.64 809.334C552.255 809.173 553.745 808.93 553.952 808.769C554.201 808.607 556.063 808.244 558.092 808.001C563.97 807.274 568.689 806.345 569.641 805.74C570.097 805.416 571.338 805.053 572.332 804.891C574.319 804.568 575.809 803.478 575.437 802.589C575.271 802.185 575.685 801.943 576.803 801.781C579.659 801.337 589.553 798.954 589.925 798.671C590.091 798.469 590.132 797.621 589.967 796.732L589.718 795.157L586.531 794.673C580.156 793.703 580.57 793.865 580.86 792.613C581.149 791.28 581.563 791.401 573.615 790.23L568.441 789.462L562.645 790.432C557.678 791.239 555.401 791.361 546.873 791.401H536.897L533.295 790.149L529.735 788.937L525.14 790.028L520.545 791.118L512.846 790.068C505.891 789.058 501.752 788.776 500.551 789.179Z" fill="#9B3E48"/>
<path d="M500.814 347.36C485.658 349.161 471.064 355.248 458.153 365.225C453.775 368.647 446.964 375.31 443.297 379.849C430.274 395.877 424.511 413.958 425.633 435.136C426.719 455.378 435.213 474.072 450.107 488.875C471.999 510.63 503.284 519.203 533.932 511.783C567.837 503.607 593.283 476.521 598.747 442.808C599.533 437.73 599.683 424.835 598.934 419.937C594.743 391.807 577.304 368.755 550.772 356.365C541.379 351.935 533.296 349.521 523.117 348.045C517.504 347.216 505.192 346.856 500.814 347.36Z" fill="#E6F7ED" fill-opacity="0.5"/>
<path d="M417.476 462.078C410.74 463.41 405.538 465.031 400.673 467.3C392.178 471.262 386.827 476.053 378.968 486.75C359.883 512.719 345.102 536.239 331.892 561.668C315.202 593.904 304.237 623.367 297.838 653.334C293.721 672.712 292.225 686.615 292.225 706.461C292.225 720.328 292.374 723.677 293.871 737.544C294.283 741.29 294.62 744.46 294.62 744.676C294.62 744.856 321.077 745 364.786 745H434.952V744.136C434.952 743.631 434.353 739.201 433.679 734.303C431.958 722.561 430.947 713.484 430.461 705.74C430.012 699.041 430.012 698.969 431.434 687.911C431.92 683.949 432.744 676.386 433.268 671.055C434.764 655.711 435.663 650.525 438.17 642.168C441.725 630.534 449.06 616.595 460.511 599.739C462.756 596.425 464.702 593.724 464.852 593.724C464.964 593.724 465.637 595.129 466.349 596.894C470.989 608.275 477.987 620.197 484.348 627.401C490.972 634.893 499.317 640.908 508.56 644.834C511.854 646.202 533.783 653.118 541.043 655.063C555.824 659.025 569.97 660.79 596.801 661.978C603.612 662.266 612.78 662.771 617.196 663.095C626.102 663.743 634.485 663.599 637.628 662.771C640.211 662.086 643.242 660.466 644.364 659.169C646.946 656.215 648.368 651.317 648.818 643.897C649.491 632.984 646.722 630.607 631.791 629.382C626.739 628.986 596.427 625.168 584.452 623.439C561.849 620.197 540.968 615.551 532.361 611.877C524.09 608.383 511.255 585.332 499.205 552.339L497.296 547.081L497.259 538.976C497.222 529.972 496.847 528.099 494.415 524.389C493.068 522.336 492.731 522.048 491.496 522.048C490.111 522.048 482.328 520.283 479.147 519.275C472.71 517.222 462.906 511.639 452.203 503.931C437.534 493.414 430.685 483.869 423.276 463.735C422.789 462.438 422.266 461.357 422.041 461.321C421.854 461.285 419.796 461.61 417.476 462.078Z" fill="#E6F7ED" fill-opacity="0.5"/>
<path d="M739.266 568.403C737.208 571.753 732.643 579.245 729.088 585.08C725.532 590.915 716.027 606.402 707.944 619.477C690.506 647.679 682.984 659.997 675.013 673.252C670.747 680.42 668.763 683.337 667.79 684.057L666.481 685.03L595.791 685.138L525.138 685.21V695.835V706.461H602.04C686.464 706.461 680.252 706.641 682.535 704.264C683.171 703.579 689.907 692.666 697.466 679.987C705.063 667.309 722.202 638.603 735.636 616.235C763.067 570.456 762.842 570.817 762.243 570.348C761.308 569.628 758.164 568.295 753.112 566.458C750.156 565.414 746.751 564.045 745.516 563.469C744.318 562.857 743.27 562.388 743.158 562.388C743.046 562.388 741.324 565.09 739.266 568.403Z" fill="#E6F7ED" fill-opacity="0.5"/>
<path d="M478.511 713.7C477.837 714.421 477.8 715.249 477.687 726.775C477.612 733.51 477.687 740.39 477.8 742.01L478.062 745H624.531H771V728.972V712.944H625.129H479.222L478.511 713.7Z" fill="#E6F7ED" fill-opacity="0.5"/>
<g clip-path="url(#clip1_3_91)">
<path d="M586.647 2.56254C586.647 4.48754 586.821 5.18754 586.995 4.05004C587.169 3.00004 587.169 1.42504 586.995 0.550043C586.734 -0.237457 586.56 0.637542 586.647 2.56254Z" fill="#96ACA0" fill-opacity="0.8"/>
<path d="M466.673 10.0875C467.021 12.0126 467.021 14.025 466.673 14.4625C466.412 14.9875 465.977 19.0126 465.803 23.3876C465.542 29.8625 464.846 33.1 462.236 40.5375C459.973 46.6625 458.407 49.8125 457.45 50.0751C455.71 50.5126 455.71 50.5126 455.536 63.1125C455.449 68.0125 455.188 72.2125 454.927 72.475C454.666 72.7375 455.884 84.55 457.537 98.725C459.19 112.987 460.408 124.713 460.147 124.888C459.973 125.15 458.407 125.5 456.667 125.85C453.622 126.375 453.448 126.288 449.881 121.125C447.88 118.237 445.966 115.875 445.618 115.875C444.052 115.963 443.008 117.538 441.529 122C440.746 124.625 439.615 127.163 439.18 127.688C438.745 128.125 435.439 129.175 431.698 129.875C425.347 131.188 424.999 131.362 424.999 133.55C424.912 136.438 424.825 136.525 420.997 137.225C418.126 137.75 417.778 137.575 417.256 135.562C416.473 132.5 409.252 127.95 406.207 128.65C403.858 129.088 403.858 129 401.422 118.85C400.03 113.163 398.377 108.088 397.855 107.475C397.246 106.862 396.724 105.812 396.724 105.112C396.724 104.413 395.941 103.013 394.984 101.875C394.027 100.737 393.244 99.3375 393.244 98.725C393.244 98.1125 392.896 96.625 392.461 95.4L391.591 93.3L381.847 96.1875C370.102 99.775 369.145 100.475 370.624 104.85C371.581 107.825 371.32 109.75 369.841 109.75C369.493 109.75 367.057 103.013 364.447 94.875C361.837 86.475 359.314 80 358.791 80C358.182 80 357.486 78.775 357.138 77.2875C356.79 75.7125 355.833 74.4 354.876 74.1375C354.006 73.875 353.049 72.9125 352.788 72.0375C352.179 70.1125 351.222 69.9375 348.786 71.3375C347.307 72.125 346.959 71.95 346.524 70.375C346.176 69.0625 345.654 68.7125 344.61 69.15C339.999 71.075 339.564 70.8125 337.563 64.775C336.519 61.625 335.388 59 335.04 59C334.779 59 333.735 60.4875 332.778 62.2375C331.821 64.0751 330.342 66.2626 329.472 67.1376C328.08 68.5375 328.08 69.0625 328.95 71.6875C329.82 74.1375 329.82 74.8375 328.602 75.975C326.601 77.9875 325.992 80.525 327.123 82.625C327.819 84.025 327.819 84.55 326.775 84.9C325.731 85.3375 325.731 85.775 326.775 88.3125C327.645 90.5 327.732 91.2875 326.949 91.55C326.253 91.8125 328.341 97.85 332.778 108.788C336.693 118.413 339.216 125.85 338.781 126.288C338.346 126.638 336.606 127.513 334.953 128.125C328.863 130.4 304.503 142.475 304.503 143.175C304.503 143.612 305.721 146.325 307.2 149.213C308.679 152.188 309.723 154.638 309.549 154.812C309.375 154.9 307.374 156.125 304.938 157.438C302.589 158.75 299.37 160.675 297.891 161.638L295.281 163.388L325.035 216.413C354.876 269.438 354.876 269.438 352.962 270.925C351.918 271.713 350.874 272.237 350.526 271.975C350.178 271.8 341.652 257.45 331.473 240.125C321.207 222.8 312.42 208.625 311.898 208.625C311.376 208.625 310.071 207.05 308.94 205.125C307.896 203.2 306.765 201.625 306.504 201.625C306.243 201.625 304.764 202.413 303.111 203.375L300.327 205.213L298.935 203.2C297.804 201.538 297.282 201.362 295.977 202.237C295.194 202.763 294.585 203.812 294.585 204.6C294.672 205.388 294.411 206 293.976 206C293.541 206 293.454 206.612 293.802 207.4C294.063 208.188 293.802 209.062 293.193 209.5C292.41 209.938 292.758 211.075 294.411 213.7C296.847 217.638 297.108 218.25 295.89 218.25C295.542 218.25 294.15 216.675 292.845 214.75C291.453 212.65 290.148 211.513 289.365 211.775C288.582 212.038 287.103 210.725 285.276 208.013C283.71 205.737 282.405 203.638 282.231 203.55C282.144 203.375 280.578 204.163 278.838 205.388C276.837 206.788 276.054 207.75 276.663 208.188C277.185 208.538 277.446 209.413 277.185 210.112C276.924 210.812 278.751 214.312 281.448 218.163C284.058 221.925 286.233 225.25 286.233 225.513C286.233 225.775 285.624 226.125 284.928 226.475C284.058 226.825 281.187 223.5 275.271 215.188C270.66 208.713 266.658 203.375 266.223 203.375C265.266 203.375 246.908 217.463 238.121 225.075L230.552 231.638L235.337 237.062C237.947 240.125 240.122 242.925 240.122 243.362C240.122 243.713 239.252 244.588 238.295 245.288C236.642 246.25 236.207 246.163 234.902 244.763C234.032 243.888 222.287 230.938 208.802 216.062C195.23 201.1 183.659 188.85 183.05 188.675C182.528 188.5 178.526 190.338 174.263 192.7C170.087 195.062 165.911 197.163 165.128 197.513C164.258 197.775 163.562 198.475 163.562 199C163.562 200.4 161.648 200.05 159.56 198.038L157.733 196.288L154.514 198.125C152.686 199.088 150.859 199.7 150.424 199.35C149.902 199.088 148.336 199.875 146.944 201.275L144.421 203.725L141.898 201.275C139.462 199 139.114 198.913 136.156 199.875L132.937 200.925L135.634 203.725C137.113 205.3 138.331 206.788 138.331 207.138C138.331 207.575 136.504 209.85 134.242 212.3C131.632 215.1 130.501 216.938 131.197 217.112C132.937 217.725 132.415 219.475 129.631 222.188C128.152 223.588 127.195 225.25 127.369 225.775C127.543 226.3 127.195 227.612 126.499 228.575C125.368 230.237 125.455 230.588 127.891 232.338C129.283 233.475 130.501 234.612 130.501 235.05C130.501 235.487 128.152 238.725 125.281 242.4C122.41 245.987 120.061 249.225 120.148 249.575C120.148 249.925 128.065 256.225 137.722 263.487C184.964 299.362 191.315 304.438 190.445 305.4C190.01 305.925 189.923 306.625 190.184 306.888C190.88 307.5 188.183 311.875 187.226 311.875C186.791 311.875 184.094 310.125 181.136 307.938C178.178 305.838 175.307 304.263 174.698 304.438C174.002 304.7 172.175 303.913 170.522 302.688C168.869 301.463 167.477 300.5 167.39 300.5C167.216 300.5 165.998 302.163 164.519 304.263L161.996 308.025L166.259 311C168.608 312.575 170.522 314.15 170.522 314.413C170.522 314.763 169.565 316.425 168.347 318.175C167.129 319.925 166.172 321.588 166.172 321.85C166.172 322.112 168.608 323.95 171.653 325.963C174.611 327.975 177.134 329.725 177.308 329.812C177.395 329.9 174.959 334.1 171.827 339.088C168.695 344.075 166.172 348.45 166.172 348.8C166.172 349.15 167.738 350.375 169.652 351.425C171.566 352.562 173.132 353.963 173.132 354.663C173.132 356.237 172.436 355.888 155.558 346.35C145.378 340.575 140.419 338.213 139.201 338.562C138.244 338.825 136.591 338.475 135.373 337.688C132.85 336.025 133.198 335.588 125.716 349.5C123.367 353.788 120.931 357.288 120.322 357.112C119.8 357.025 118.756 357.638 118.147 358.513C117.016 360 116.842 360 112.84 358.338C110.578 357.375 108.664 356.85 108.664 357.2C108.577 357.55 108.49 358.425 108.403 359.125C108.229 361.75 104.836 368.75 103.705 368.75C103.009 368.75 102.661 369.45 102.835 370.237C103.009 371.112 101.53 375.925 99.529 381C97.0929 387.125 96.2229 390.275 96.8319 390.538C97.4409 390.713 99.529 391.588 101.53 392.463L105.184 394.038L101.269 405.062C99.181 411.1 97.4409 416.438 97.4409 416.788C97.4409 417.138 98.746 417.838 100.312 418.362C102.4 418.975 103.009 419.588 102.835 420.9C102.661 422.475 103.444 423 108.316 424.312C111.448 425.1 113.971 426.15 113.971 426.5C113.971 426.85 113.536 428.425 113.014 429.913C112.318 431.925 111.535 432.625 110.578 432.362C109.795 432.188 99.877 429.3 88.5669 426.062L67.9477 420.112L68.4697 417.75C68.9047 415.125 68.6437 414.775 65.1636 413.987C63.0756 413.463 62.8146 413.725 61.5096 418.625C60.3786 422.65 59.6826 423.875 58.3776 423.875C56.9855 423.875 56.2895 425.713 53.9405 435.425C52.4615 441.812 50.9825 447.763 50.7215 448.638C50.3735 449.95 49.7645 450.125 46.8935 449.688C44.7184 449.338 43.5004 449.425 43.5004 450.038C43.5004 450.562 42.8914 451 42.1954 451C40.6294 451 40.5424 452.05 41.8474 453.362C42.4564 453.975 42.3694 456.163 41.4124 460.713C40.7164 464.3 39.8464 469.025 39.5854 471.3C39.1504 474.013 38.5414 475.5 37.7584 475.5C37.0624 475.5 36.5404 476.2 36.5404 477.163C36.5404 478.038 36.2794 480.05 36.0183 481.538C35.5833 483.725 35.7573 484.25 36.8884 484.25C37.9324 484.25 38.2804 484.862 38.1064 486.612C37.8454 488.8 38.1064 489.062 40.8904 489.325C44.8924 489.675 45.4144 490.375 44.4574 493.525C44.0224 494.925 43.4134 500.525 43.1524 505.862C42.7174 514.088 42.8044 515.75 43.8484 515.75C44.8054 515.75 44.9794 516.8 44.6314 521L44.1094 526.25H47.7635C51.1565 526.25 51.3305 526.163 51.3305 523.538V520.825L60.6396 521.35C65.8596 521.7 76.1257 522.312 83.5208 522.75C90.9159 523.275 110.317 524.413 126.586 525.375C142.855 526.338 158.342 527.3 161.126 527.562L165.998 528L166.52 524.675C166.781 522.925 167.216 518.463 167.477 514.875C168.26 505.862 171.914 481.713 173.045 479C174.35 475.675 174.176 478.125 172.262 488.888C170.087 501.05 167.912 519.862 167.912 526.25C167.912 533.163 167.042 537.713 165.824 537.013C165.215 536.663 165.128 536.838 165.737 537.45C166.259 537.975 169.217 538.5 172.436 538.675L178.265 538.938L178.7 534.562C178.961 532.112 179.396 526.862 179.657 522.75C179.918 518.638 180.614 511.987 181.049 507.875C181.832 501.4 182.528 497.375 185.051 482.675C185.312 481.188 185.921 479.875 186.269 479.875C187.313 479.875 187.226 481.013 185.747 488.713C183.833 498.862 181.919 515.663 181.049 529.663C180.44 538.413 179.918 542.438 179.048 542.963C178.439 543.4 182.789 543.75 189.227 543.75C195.491 543.75 206.714 544.013 214.283 544.362C227.855 544.888 227.942 544.888 227.942 546.987V549H113.884H-0.0870056L0.522 564.487C0.783003 573.062 1.21801 580.15 1.30501 580.325C1.47901 580.5 22.5332 579.362 48.1985 577.788C73.8637 576.213 95.0049 575.163 95.1789 575.338C95.3529 575.513 95.7879 579.275 96.1359 583.65L96.7449 591.613L86.0438 592.663C70.9927 594.062 70.4707 594.238 70.4707 596.775C70.4707 597.913 70.1227 598.875 69.6007 598.875C69.1657 598.875 68.7307 599.837 68.7307 600.975C68.7307 602.288 68.1217 603.25 67.0777 603.513C65.6856 603.863 65.5116 604.388 66.2076 607.712C66.5556 609.812 66.9036 612.613 66.9906 613.925C66.9906 616.113 66.6426 616.375 64.2066 616.375C59.0736 616.375 57.4206 617.25 57.9426 619.438C58.3776 621.188 58.0296 621.538 54.8105 622.062C52.1135 622.5 51.3305 623.025 51.6785 623.988C51.9395 624.688 52.2005 625.562 52.2005 625.913C52.2005 626.7 62.2056 626.438 66.0336 625.562C68.0347 625.125 68.5567 625.388 68.9917 626.875C69.4267 628.538 69.8617 628.712 72.1237 628.188C74.6467 627.663 74.9077 627.837 75.3427 630.288C75.6907 631.775 76.3867 633 76.9087 633C77.5177 633 82.9988 632.038 89.1759 630.812C95.4399 629.587 100.921 628.625 101.443 628.625C101.965 628.625 102.835 631.425 103.444 634.75C104.053 638.075 104.662 640.875 104.836 640.875C104.923 640.875 109.36 639.913 114.667 638.688C119.974 637.462 124.498 636.5 124.672 636.5C124.846 636.5 125.542 638.775 126.151 641.488C126.76 644.2 128.587 651.2 130.153 656.888C131.806 662.663 133.024 667.475 132.937 667.65C132.676 667.913 105.445 676.575 86.9138 682.35L76.8217 685.5L74.1247 691.538L71.4277 697.575L75.1687 707.988C79.0838 718.837 87.4358 739.488 88.5669 741.15C88.9149 741.587 91.7859 743.163 94.9179 744.475L100.747 746.925L133.894 731C152.164 722.163 167.216 715.163 167.39 715.337C167.912 716.038 180.092 739.75 180.092 740.1C180.092 740.275 177.917 741.763 175.307 743.25L170.522 745.962L172.871 749.638C174.089 751.65 175.22 753.488 175.394 753.663C175.568 753.837 177.656 752.7 180.092 751.212C182.528 749.725 184.616 748.5 184.877 748.5C185.051 748.5 186.878 750.95 188.792 753.837C192.098 758.825 192.185 759.263 190.793 760.4C189.923 761.013 188.966 761.625 188.705 761.625C188.444 761.625 186.878 764.775 185.312 768.712L182.354 775.712L153.469 795.575C131.023 810.975 124.237 816.05 123.193 818.325C121.366 822 121.366 822 123.976 822C125.194 822 126.151 822.175 126.151 822.438C126.151 822.7 122.584 827.688 118.234 833.55C113.884 839.413 110.665 844.4 111.187 844.575C111.622 844.663 117.364 842.825 123.976 840.375C130.501 838.012 136.069 836 136.33 836C136.504 836 136.504 837.225 136.156 838.625C135.634 841.163 135.721 841.25 138.592 841.25C141.724 841.25 142.942 840.55 156.167 830.05C160.43 826.638 164.258 824.1 164.693 824.363C165.041 824.538 165.911 824.363 166.52 823.837C167.216 823.225 168.086 822.962 168.608 823.05C169.043 823.225 176.003 818.15 184.007 811.763L198.536 800.212L202.364 804.763L206.105 809.312L204.278 811.238L202.451 813.25L205.322 816.925L208.28 820.6L202.19 826.113C198.884 829.087 196.535 831.625 196.97 831.625C197.492 831.625 196.796 832.763 195.491 834.075C193.403 836.262 193.229 836.963 193.751 841.075C194.012 843.875 193.925 846.062 193.316 846.762C192.533 847.637 192.62 848.338 193.403 849.562C194.447 850.875 194.795 850.963 196.361 849.913C197.84 849.038 199.145 849.038 202.451 849.825L206.627 850.788L214.457 843L222.287 835.125L230.291 843.175C236.729 849.65 238.556 850.963 239.513 850.175C240.47 849.387 241.079 849.475 242.297 850.875C243.254 852.012 244.472 852.45 245.516 852.1C246.647 851.75 246.908 852.012 246.647 852.887C246.125 854.113 253.172 861.375 254.825 861.375C255.347 861.375 256.043 860.675 256.478 859.887C257.262 858.488 257.522 858.575 259.785 859.975C262.047 861.55 262.221 861.55 263.265 860.062C264.309 858.663 264.57 858.663 267.18 860.588L269.964 862.512L271.53 860.413C272.4 859.275 273.618 857.525 274.314 856.562C275.358 855.25 275.88 855.075 276.837 855.95C277.881 856.825 278.664 856.3 280.926 853.062C282.492 850.875 284.145 849.3 284.58 849.562C285.015 849.913 284.406 851.4 283.188 852.975C280.926 855.95 280.404 857.875 281.883 857.875C283.449 857.875 282.753 859.975 280.143 863.475C278.664 865.488 277.707 867.588 277.968 868.375C278.229 869.163 277.533 871 276.489 872.312L274.575 874.762L276.663 876.163C282.579 880.1 282.579 879.75 278.403 885.613C275.184 890.25 274.488 892.963 276.489 892.875C276.837 892.875 278.664 890.512 280.578 887.625C283.971 882.55 285.537 881.413 286.668 883.25C287.625 884.738 288.321 884.213 290.844 880.188C292.236 878 293.541 876.25 293.802 876.25C294.063 876.25 298.152 878.7 302.763 881.675L311.289 887.1L312.333 892.088L313.377 897.075L316.944 895.85C318.858 895.15 320.598 894.8 320.859 894.975C321.033 895.238 315.813 905.125 309.288 917.025L297.369 938.725L299.544 940.3C300.849 941.262 301.632 942.488 301.371 943.1C301.11 943.713 301.545 944.5 302.328 944.85C303.546 945.288 303.459 945.988 301.197 950.188L298.587 955.088L306.504 959.113C310.941 961.3 318.597 965.062 323.643 967.338L332.778 971.45L335.04 966.025C336.432 962.788 337.824 960.775 338.52 960.863C339.303 961.038 341.739 956.312 345.654 946.863C353.049 929.1 352.788 929.45 354.876 932.163C356.442 934.262 356.442 934.35 350.526 949.137C347.22 957.363 344.784 964.363 345.219 964.713C345.567 964.975 349.743 966.725 354.528 968.562C359.314 970.4 363.403 972.062 363.577 972.238C363.925 972.412 362.359 977.488 358.704 987.9C358.53 988.425 360.706 989.562 363.577 990.438C368.449 991.925 368.797 992.1 368.362 994.287C367.84 996.562 368.101 996.65 377.932 999.537C383.5 1001.11 388.024 1002.69 388.024 1003.04C388.024 1003.3 386.806 1007.68 385.414 1012.66C384.022 1017.65 383.065 1022.11 383.326 1022.46C383.5 1022.81 387.415 1023.95 391.852 1025L400.03 1026.93L398.812 1031.83C394.636 1049.67 392.113 1061.75 392.461 1062.19C392.722 1062.45 401.335 1064.29 411.601 1066.3C421.867 1068.31 430.48 1070.41 430.828 1070.85C431.176 1071.38 431.524 1072.69 431.524 1073.74C431.524 1074.79 431.959 1075.75 432.568 1075.93C433.09 1076.1 434.047 1077.68 434.569 1079.34C435.091 1081 436.396 1082.66 437.44 1083.19C438.484 1083.62 439.441 1084.59 439.702 1085.38C439.963 1086.43 440.05 1086.34 440.137 1085.11C440.137 1084.33 440.746 1083.62 441.355 1083.62C441.964 1083.62 443.182 1082.23 444.052 1080.56C445.009 1078.9 446.314 1077.5 447.01 1077.5C447.619 1077.5 448.402 1076.71 448.663 1075.75C448.924 1074.79 449.446 1074 449.881 1074C450.316 1074 450.664 1073.04 450.664 1071.81C450.664 1070.5 451.186 1069.62 451.882 1069.62C452.752 1069.62 453.274 1068.4 453.448 1065.86C453.709 1062.71 453.97 1062.19 455.623 1062.27C457.711 1062.36 458.146 1060.96 458.668 1053.88C458.842 1051.95 459.364 1050.9 460.06 1051.08C460.582 1051.16 461.104 1050.73 461.104 1050.2C461.104 1049.59 461.714 1043.9 462.409 1037.69C463.105 1031.39 463.715 1026.05 463.715 1025.61C463.715 1025.26 464.585 1025 465.716 1025C467.63 1025 467.63 1024.83 470.588 993.238C474.416 951.325 473.981 954.125 476.504 954.125C478.505 954.125 478.592 954.213 477.983 959.375L477.374 964.625H479.81H482.246L481.637 973.812L481.028 983H483.899C489.38 983 489.206 982.213 488.075 1007.15C487.553 1019.66 486.683 1030.69 486.161 1031.74C485.204 1033.66 485.813 1035.5 487.292 1035.5C489.032 1035.5 508.085 1053.35 508.085 1054.92C508.085 1056.41 509.216 1056.5 523.049 1056.5C536.969 1056.5 538.1 1056.41 539.927 1054.66L541.841 1052.91L545.756 1060.18C547.931 1064.2 549.932 1068.93 550.28 1070.76C550.628 1072.51 551.237 1074.26 551.672 1074.52C552.107 1074.79 552.455 1076.89 552.455 1079.34C552.455 1081.7 552.803 1083.62 553.238 1083.62C553.76 1083.62 554.369 1085.38 554.717 1087.56C555.065 1090.27 555.674 1091.5 556.544 1091.5C557.675 1091.5 557.762 1090.8 557.327 1087.91C556.979 1085.99 556.979 1083.97 557.327 1083.54C557.588 1083.01 558.023 1078.99 558.197 1074.61C558.458 1068.14 559.154 1064.9 561.764 1057.46C564.026 1051.34 565.592 1048.19 566.637 1047.92C568.29 1047.49 568.29 1047.49 568.464 1034.89C568.551 1029.99 568.812 1025.79 569.073 1025.53C569.334 1025.26 568.116 1013.45 566.462 999.275C564.809 985.013 563.591 973.287 563.853 973.113C564.026 972.85 565.592 972.5 567.332 972.15C570.378 971.625 570.552 971.713 574.119 976.875C576.12 979.763 578.034 982.125 578.382 982.125C579.948 982.037 580.992 980.463 582.471 976C583.254 973.375 584.385 970.75 584.82 970.312C585.255 969.787 588.561 968.825 592.302 968.125C598.653 966.812 599.001 966.638 599.001 964.45C599.088 961.562 599.175 961.475 603.003 960.775C605.874 960.25 606.222 960.425 606.744 962.438C607.527 965.5 614.748 970.05 617.793 969.35C620.142 968.912 620.142 969 622.578 979.15C623.97 984.838 625.623 989.912 626.145 990.525C626.754 991.138 627.276 992.188 627.276 992.888C627.276 993.588 628.059 994.988 629.016 996.125C629.973 997.263 630.756 998.662 630.756 999.275C630.756 999.888 631.104 1001.38 631.539 1002.6L632.409 1004.7L642.153 1001.81C653.898 998.225 654.768 997.613 653.463 993.062C652.593 989.825 652.767 988.25 654.159 988.25C654.507 988.25 656.943 994.9 659.553 1003.12C662.163 1011.26 664.686 1018 665.208 1018C665.73 1018 666.6 1019.31 667.035 1020.8C667.47 1022.38 668.34 1023.6 668.949 1023.43C669.472 1023.34 670.428 1024.21 670.951 1025.44C671.995 1027.89 672.691 1028.06 675.214 1026.66C676.693 1025.88 677.041 1026.05 677.476 1027.62C677.824 1028.94 678.346 1029.29 679.39 1028.85C684.001 1026.93 684.436 1027.19 686.437 1033.23C687.481 1036.38 688.612 1039 688.96 1039C689.221 1039 690.265 1037.51 691.222 1035.76C692.179 1033.92 693.658 1031.74 694.528 1030.86C695.92 1029.46 695.92 1028.94 695.05 1026.31C694.18 1023.86 694.18 1023.16 695.398 1022.03C697.399 1020.01 698.008 1017.47 696.877 1015.38C696.094 1013.97 696.181 1013.45 697.225 1013.1C698.443 1012.66 698.443 1012.22 697.312 1009.69C696.442 1007.59 696.442 1006.62 697.138 1006.36C697.747 1006.19 695.485 999.713 691.309 989.213C687.394 979.675 684.784 972.15 685.219 971.713C685.654 971.363 687.394 970.488 689.047 969.875C695.137 967.6 719.497 955.525 719.497 954.825C719.497 954.387 718.279 951.675 716.8 948.788C715.321 945.812 714.277 943.363 714.451 943.275C714.625 943.1 717.844 941.175 721.759 938.9L728.806 934.7L704.881 892.088C691.744 868.725 678.346 844.838 675.04 839.062L669.124 828.562L671.038 827.075C672.082 826.288 673.213 825.763 673.474 826.025C673.822 826.2 682.435 840.55 692.614 857.875C702.793 875.2 711.58 889.375 712.102 889.375C712.624 889.375 713.929 890.95 715.06 892.875C716.104 894.8 717.235 896.375 717.496 896.375C717.757 896.375 719.323 895.5 720.976 894.538C724.021 892.613 724.717 892.788 725.935 895.938C726.457 897.338 729.502 895.062 729.415 893.4C729.328 892.613 729.676 892 730.111 892C730.633 892 730.72 891.3 730.459 890.512C730.111 889.725 730.372 888.762 730.981 888.413C731.677 887.975 731.329 886.838 729.676 884.213C727.153 880.363 726.892 879.75 728.11 879.75C728.458 879.75 729.85 881.325 731.155 883.25C732.547 885.35 733.852 886.488 734.635 886.225C735.418 885.963 736.897 887.275 738.724 889.988C740.29 892.262 741.595 894.363 741.769 894.45C741.856 894.625 743.422 893.838 745.162 892.613C747.163 891.213 747.946 890.25 747.337 889.812C746.815 889.463 746.554 888.588 746.815 887.887C747.163 887.1 745.336 883.775 742.552 879.75C739.942 875.988 737.767 872.75 737.767 872.488C737.767 872.225 738.376 871.875 739.072 871.525C739.942 871.175 742.813 874.5 748.729 882.812C753.34 889.288 757.429 894.625 757.777 894.625C758.734 894.625 772.829 883.688 784.139 874.325L793.535 866.45L788.663 860.938C786.053 857.875 783.878 855.075 783.878 854.637C783.878 854.288 784.748 853.413 785.792 852.713C787.532 851.575 787.967 851.838 792.056 856.475C813.371 880.45 840.167 909.413 841.037 909.413C842.429 909.5 859.916 899.875 860.264 898.825C860.786 897.6 862.439 898.038 864.44 899.963L866.267 901.713L869.486 899.875C871.314 898.913 873.14 898.3 873.575 898.65C874.098 898.913 875.664 898.125 877.056 896.725L879.579 894.275L882.102 896.725C884.538 899 884.886 899.088 887.844 898.125L891.063 897.075L888.366 894.275C886.887 892.7 885.669 891.213 885.669 890.863C885.669 890.425 887.496 888.238 889.671 885.875C893.151 882.2 893.586 881.325 892.629 880.188C891.672 879.05 891.933 878.35 894.369 875.812C896.022 874.15 897.066 872.488 896.718 872.137C896.37 871.875 896.718 870.65 897.414 869.6C898.632 867.675 898.545 867.413 896.109 865.575C894.717 864.525 893.499 863.3 893.499 862.95C893.499 862.512 895.848 859.188 898.719 855.512C901.59 851.925 903.939 848.688 903.939 848.338C903.852 848.075 887.844 835.65 868.268 820.688C843.908 802.138 832.946 793.3 833.555 792.6C833.99 792.075 834.077 791.375 833.816 791.113C833.12 790.5 835.817 786.125 836.774 786.125C837.209 786.125 839.906 787.875 842.864 790.062C845.822 792.163 848.693 793.738 849.302 793.562C849.998 793.3 851.825 794.087 853.478 795.312C855.131 796.538 856.523 797.5 856.61 797.5C856.784 797.5 858.089 795.75 859.481 793.65L862.178 789.8L857.828 787C855.392 785.425 853.478 783.938 853.478 783.587C853.478 783.325 854.435 781.575 855.653 779.825C856.871 778.075 857.828 776.413 857.828 776.15C857.828 775.888 855.392 774.05 852.434 772.038C849.389 770.025 846.866 768.275 846.692 768.188C846.518 768.013 848.867 764.163 851.738 759.525C854.696 754.8 857.219 750.513 857.48 749.812C857.828 749.113 856.61 747.888 854.435 746.575C852.434 745.438 850.868 744.038 850.868 743.337C850.868 741.675 851.912 742.2 868.529 751.65C878.448 757.337 883.668 759.788 884.799 759.438C885.756 759.175 887.409 759.525 888.54 760.312C891.063 761.975 890.715 762.413 897.501 750.075C900.285 744.913 903.069 740.712 903.678 740.888C904.2 740.975 905.244 740.363 905.94 739.4C907.071 737.825 907.245 737.825 911.16 739.575C913.422 740.625 915.336 741.15 915.336 740.8C915.423 740.45 915.51 739.575 915.597 738.875C915.771 736.25 919.164 729.25 920.295 729.25C920.991 729.25 921.339 728.55 921.165 727.763C920.991 726.888 922.47 722.075 924.471 717C926.907 710.875 927.777 707.725 927.168 707.462C926.559 707.288 924.471 706.413 922.47 705.538L918.816 703.962L922.731 692.938C924.819 686.9 926.559 681.562 926.559 681.212C926.559 680.863 925.254 680.163 923.775 679.638C921.6 679.025 920.991 678.413 921.165 677.1C921.339 675.525 920.556 675 915.684 673.688C912.552 672.9 910.029 671.85 910.029 671.5C910.029 671.15 910.464 669.575 910.986 668.087C911.682 666.075 912.465 665.375 913.422 665.638C914.205 665.812 924.123 668.7 935.433 671.938L956.052 677.888L955.617 680.25C955.182 682.35 955.443 682.788 957.966 683.663C959.532 684.188 960.837 684.538 960.924 684.45C961.098 684.275 961.794 681.913 962.577 679.113C963.708 675.35 964.404 674.125 965.622 674.125C967.014 674.125 967.71 672.2 970.059 662.575C971.538 656.188 973.017 650.238 973.278 649.363C973.626 648.05 974.236 647.875 977.106 648.312C979.282 648.663 980.5 648.575 980.5 647.962C980.5 647.438 981.109 647 981.805 647C983.371 647 983.458 645.95 982.153 644.638C981.544 644.025 981.631 641.837 982.588 637.288C983.284 633.7 984.154 628.975 984.415 626.613C984.85 623.988 985.459 622.5 986.242 622.5C986.938 622.5 987.46 621.8 987.46 620.837C987.46 619.962 987.721 617.95 987.982 616.462C988.417 614.275 988.243 613.75 987.112 613.75C986.068 613.75 985.72 613.138 985.894 611.3C986.155 609.113 985.894 608.938 982.675 608.5C980.761 608.238 979.195 607.625 979.282 607.188C979.282 606.663 979.543 604.913 979.804 603.25C980.152 601.587 980.587 596.163 980.935 591.175C981.283 583.825 981.196 582.25 980.152 582.25C979.195 582.25 979.021 581.2 979.368 577L979.891 571.75H976.236C972.843 571.75 972.669 571.838 972.669 574.463V577.175L963.36 576.65C958.14 576.3 947.874 575.688 940.479 575.25C933.084 574.725 913.683 573.588 897.414 572.625C881.145 571.663 865.658 570.7 862.874 570.438L858.002 570L857.48 573.325C857.219 575.075 856.784 579.538 856.523 583.125C855.74 592.138 852.086 616.288 850.955 619C849.65 622.325 849.824 619.875 851.738 609.113C853.913 596.95 856.088 578.138 856.088 571.75C856.088 564.838 856.958 560.288 858.176 560.987C858.785 561.338 858.872 561.163 858.263 560.55C857.828 560.025 854.783 559.5 851.564 559.325L845.735 559.062L845.3 563.438C845.039 565.8 844.604 571.138 844.343 575.25C844.082 579.362 843.386 586.013 842.951 590.125C842.168 596.6 841.472 600.625 838.949 615.238C838.688 616.812 838.079 618.125 837.731 618.125C836.687 618.125 836.687 617.6 838.601 606.488C840.95 593.1 842.081 583.212 842.951 568.338C843.56 559.588 844.082 555.562 844.952 555.038C845.561 554.6 841.211 554.25 834.773 554.25C828.596 554.25 817.286 553.987 809.804 553.638C796.145 553.112 796.058 553.112 796.058 551.013V549H910.116H1024.09L1023.48 533.425C1023.22 524.938 1022.78 517.85 1022.69 517.675C1022.52 517.5 1001.47 518.638 975.801 520.213C950.136 521.7 928.995 522.838 928.821 522.663C928.647 522.487 928.212 518.725 927.864 514.35L927.255 506.388L937.956 505.338C953.181 503.85 953.529 503.763 953.529 501.225C953.529 500.088 953.964 499.125 954.399 499.125C954.921 499.125 955.269 498.163 955.269 497.025C955.269 495.713 955.878 494.75 956.922 494.487C958.314 494.138 958.488 493.612 957.792 490.288C957.444 488.188 957.096 485.388 957.009 483.987C957.009 481.888 957.357 481.625 959.88 481.625C964.926 481.625 966.579 480.75 966.057 478.562C965.622 476.812 965.97 476.463 969.189 475.938C971.886 475.5 972.669 474.975 972.321 474.013C972.06 473.312 971.799 472.438 971.799 472.088C971.799 471.3 961.794 471.562 957.966 472.438C955.878 472.875 955.443 472.612 955.008 471.038C954.573 469.463 954.051 469.2 951.789 469.638C949.353 470.163 949.092 469.987 948.57 467.625C947.961 464.475 948.222 464.475 934.389 467.188C928.386 468.413 923.079 469.375 922.557 469.375C922.035 469.375 921.165 466.575 920.556 463.25C919.947 459.838 919.338 457.125 919.164 457.125C919.077 457.125 914.64 458.088 909.333 459.312C904.026 460.538 899.502 461.5 899.328 461.5C899.154 461.5 898.458 459.225 897.849 456.513C897.24 453.8 895.413 446.8 893.847 441.112C892.194 435.338 890.976 430.438 891.237 430.263C891.411 430.088 904.026 425.975 919.251 421.163C934.476 416.35 947.004 412.325 947.178 412.237C947.265 412.062 948.57 409.35 949.962 406.2L952.572 400.425L948.831 390.013C944.916 379.163 936.564 358.513 935.433 356.85C935.085 356.413 932.214 354.838 928.995 353.525L923.166 351.075L890.019 367C871.749 375.75 856.697 382.75 856.61 382.663C856.088 381.875 843.908 358.25 843.908 357.9C843.908 357.725 846.083 356.237 848.693 354.75L853.478 352.038L851.129 348.362C849.911 346.35 848.78 344.513 848.606 344.338C848.432 344.163 846.257 345.213 843.821 346.7C841.472 348.275 839.297 349.5 839.036 349.5C838.862 349.5 837.122 347.05 835.208 344.075L831.815 338.562L833.816 337.338C835.034 336.55 837.035 333.4 838.775 329.112L841.733 322.2L870.269 302.513C896.544 284.4 902.199 279.85 902.199 276.612C902.199 276.263 901.242 276 900.024 276C898.806 276 897.849 275.825 897.849 275.562C897.849 275.388 901.416 270.312 905.766 264.45C910.116 258.588 913.248 253.6 912.813 253.425C912.378 253.338 906.549 255.175 899.937 257.625C893.325 259.987 887.757 262 887.583 262C887.409 262 887.496 260.775 887.844 259.375C888.366 256.838 888.279 256.75 885.234 256.75C882.537 256.75 880.449 258.062 871.226 265.237C865.223 269.963 859.916 273.725 859.394 273.55C858.959 273.463 858.002 273.725 857.306 274.338C856.697 274.862 855.827 275.038 855.392 274.775C855.044 274.6 848.084 279.675 840.08 286.062L825.464 297.875L821.723 293.237L817.895 288.688L819.722 286.763L821.549 284.75L818.678 281.075L815.72 277.4L821.723 271.888C825.029 268.825 827.378 266.375 826.943 266.375C826.508 266.375 827.204 265.237 828.509 263.925C830.597 261.737 830.771 261.038 830.249 256.925C829.901 253.775 830.075 252.025 830.858 251.062C831.815 249.925 831.815 249.4 830.684 248.35C829.553 247.213 829.031 247.125 827.552 248.088C826.16 248.963 824.855 248.963 821.549 248.175L817.373 247.213L809.543 255.088L801.713 262.875L793.709 254.825C787.271 248.35 785.531 247.038 784.487 247.825C783.53 248.612 782.921 248.525 781.703 247.125C780.746 245.987 779.528 245.55 778.484 245.9C777.353 246.25 777.092 245.987 777.353 245.112C777.875 243.888 770.827 236.625 769.174 236.625C768.652 236.625 767.956 237.325 767.521 238.112C766.738 239.513 766.477 239.425 764.215 238.025C761.953 236.45 761.779 236.45 760.735 237.938C759.691 239.338 759.43 239.338 756.82 237.413C754.471 235.75 753.949 235.663 753.079 236.713C748.903 242.312 748.207 242.925 747.076 241.963C746.119 241.263 745.249 241.875 743.074 244.938C741.508 247.125 739.855 248.7 739.42 248.438C738.985 248.088 739.594 246.6 740.812 245.025C743.074 242.05 743.596 240.125 742.117 240.125C740.551 240.125 741.247 238.025 743.857 234.525C745.336 232.513 746.293 230.413 746.032 229.625C745.771 228.838 746.467 227 747.511 225.688L749.425 223.237L747.337 221.838C741.421 217.9 741.421 218.25 745.597 212.388C748.816 207.75 749.512 205.038 747.511 205.125C747.163 205.125 745.336 207.487 743.422 210.375C740.029 215.45 738.463 216.588 737.332 214.75C736.375 213.263 735.679 213.788 733.156 217.812C731.764 220 730.459 221.75 730.198 221.75C729.937 221.75 725.848 219.3 721.237 216.325L712.711 210.9L711.667 205.913L710.623 200.925L707.056 202.15C705.142 202.85 703.402 203.2 703.141 203.025C702.967 202.763 708.1 192.875 714.712 180.975L726.631 159.275L724.369 157.612C723.151 156.737 722.368 155.513 722.629 154.9C722.89 154.288 722.455 153.5 721.672 153.15C720.454 152.713 720.541 152.013 722.803 147.812L725.413 142.913L717.496 138.888C713.059 136.7 705.403 132.938 700.357 130.75L691.309 126.55L688.873 131.975C687.568 134.95 686.002 137.225 685.393 137.138C684.697 136.963 681.826 142.65 677.824 152.188C674.344 160.588 671.299 167.5 671.038 167.5C670.777 167.5 669.907 166.625 669.124 165.575C667.645 163.737 667.731 163.3 673.474 148.862C676.78 140.725 679.303 133.725 679.129 133.463C678.955 133.2 674.605 131.362 669.559 129.438C664.512 127.513 660.336 125.5 660.336 125.062C660.336 124.538 661.554 120.862 662.946 116.925C664.425 112.9 665.556 109.575 665.556 109.4C665.556 109.312 663.207 108.438 660.423 107.562C655.551 106.075 655.203 105.9 655.638 103.713C656.16 101.438 655.986 101.35 646.068 98.4625C640.5 96.8 635.976 95.225 635.976 94.9625C635.976 94.7 637.194 90.325 638.586 85.3375C639.978 80.35 640.935 75.8875 640.674 75.5375C640.5 75.1875 636.585 74.05 632.148 73C627.015 71.775 624.057 70.725 624.231 70.025C625.101 67.4 631.626 38.0875 631.626 36.9501C631.626 35.55 624.057 33.625 604.221 30.0375C598.479 28.9875 593.52 27.675 593.172 27.15C592.824 26.625 592.476 25.3125 592.476 24.2626C592.476 23.2125 592.041 22.25 591.432 22.0751C590.91 21.9 589.953 20.3251 589.431 18.6625C588.909 17 587.604 15.3375 586.56 14.8125C585.516 14.375 584.559 13.4125 584.298 12.625C584.037 11.5751 583.95 11.6625 583.863 12.8C583.863 13.675 583.254 14.375 582.645 14.375C582.036 14.375 580.818 15.5126 580.035 17C579.165 18.4 577.686 20.0625 576.729 20.5C575.859 21.025 575.076 21.9875 575.076 22.6875C575.076 23.3876 574.728 24 574.206 24C573.771 24 573.336 24.9625 573.336 26.1875C573.336 27.5 572.814 28.375 572.118 28.375C571.248 28.375 570.726 29.6 570.552 32.05C570.291 35.2875 570.03 35.8125 568.377 35.725C566.288 35.6376 565.853 37.0375 565.332 44.125C565.158 46.05 564.635 47.1 564.026 47.0126C563.417 46.8375 562.895 47.275 562.895 47.8876C562.895 48.4125 562.286 54.0126 561.59 60.3125C560.894 66.525 560.285 71.95 560.285 72.3C560.285 72.7375 559.415 73 558.284 73C556.37 73 556.37 73.175 553.412 104.675C549.584 146.675 550.019 143.875 547.496 143.875C545.495 143.875 545.408 143.788 546.017 138.625L546.626 133.375H544.19H541.754L542.363 124.188L542.972 115H540.101C534.62 115 534.794 115.788 535.925 90.85C536.447 78.3375 537.317 67.3125 537.839 66.2626C538.796 64.3375 538.187 62.5 536.708 62.5C535.055 62.5 515.915 44.65 515.915 43.0751C515.915 41.5875 514.784 41.5 500.951 41.5C487.031 41.5 485.9 41.5875 484.073 43.3375L482.159 45.0875L478.244 37.8251C476.069 33.8 474.068 29.0751 473.72 27.2375C473.372 25.4875 472.763 23.7375 472.328 23.475C471.893 23.2125 471.545 21.1125 471.545 18.6625C471.545 16.3 471.197 14.375 470.762 14.375C470.24 14.375 469.631 12.625 469.283 10.4375C468.935 7.72498 468.326 6.5 467.456 6.5C466.325 6.5 466.238 7.20007 466.673 10.0875ZM829.988 249.575C829.988 250.713 828.944 251.5 828.074 250.975C827.204 250.45 827.987 248.875 829.205 248.875C829.64 248.875 829.988 249.225 829.988 249.575ZM534.62 290C547.409 291.225 564.809 294.2 567.855 295.688C576.207 299.8 585.342 303.65 593.172 306.275C650.157 325.525 699.487 365.6 730.633 417.838C736.897 428.338 746.641 448.725 750.73 459.925C759.691 484.425 764.824 509.8 766.129 536.487C766.651 547.862 766.912 548.913 768.478 549.35C770.132 549.788 770.218 550.225 769.609 559.675C768.13 583.125 761.692 617.25 755.428 634.663C741.682 672.9 726.979 697.925 702.184 725.312C695.746 732.4 693.223 735.9 692.44 738.7C691.918 740.8 690.613 743.425 689.656 744.65L688.003 746.837L686.002 745L684.001 743.075L678.433 747.8C651.375 770.812 618.141 788.75 584.124 798.638C547.496 809.312 506.345 811.675 468.935 805.288C463.454 804.325 457.798 803.013 456.319 802.4C444.574 796.8 438.397 794.263 429.349 791.2C380.629 774.663 334.779 740.188 304.851 697.663C276.141 656.975 260.307 610.95 257.871 561.513C257.349 550.138 257.087 549 255.521 548.475C253.868 547.95 253.868 547.425 254.39 537.713C255.695 517.15 262.221 481.275 267.615 465.7C271.443 454.763 279.708 435.25 285.363 423.963C293.019 408.475 307.635 388.175 323.73 370.325C328.341 365.25 330.777 361.75 331.734 358.775C332.604 356.413 333.822 353.7 334.692 352.825C336.084 351.25 336.171 351.25 338.085 353.088L339.999 354.925L345.567 350.2C385.501 316.25 435.265 295.163 487.814 290.088C498.863 289.038 523.484 288.95 534.62 290ZM190.793 454.675C192.272 455.288 193.142 456.163 192.968 457.038C191.315 465.438 188.183 476.375 187.313 476.375C186.269 476.375 186.269 476.375 189.401 464.213C190.532 459.75 191.315 455.9 191.141 455.638C190.619 455.2 189.575 458.438 187.052 468.588C185.225 475.588 184.964 476.112 183.05 475.675C181.919 475.5 181.136 475.062 181.397 474.713C181.571 474.362 180.614 474.275 179.135 474.45C177.047 474.8 176.612 474.538 176.612 472.963C176.612 471.125 180.788 454.675 181.571 453.45C181.745 453.013 181.571 452.75 181.136 452.75C180.353 452.75 177.308 462.9 176.09 469.638C175.568 472.7 174.002 475.062 174.002 472.788C174.002 472.175 175.22 467.1 176.699 461.413L179.396 451.175L183.92 452.4C186.356 453.1 189.488 454.15 190.793 454.675ZM181.223 478.65C184.094 479.175 184.529 479.525 184.094 481.1C183.833 482.062 183.572 483.725 183.572 484.688C183.572 486.175 183.398 486.175 182.702 485.125C182.18 484.25 182.006 484.862 182.441 487.05C182.789 489.763 182.702 490.375 181.484 490.375C180.701 490.375 180.092 490.812 180.092 491.338C180.092 491.775 180.527 491.95 181.136 491.6C181.832 491.163 181.919 492.125 181.571 495.188C181.223 497.463 180.962 499.825 180.962 500.438C180.962 501.138 180.266 501.4 179.048 501.138C177.134 500.788 177.134 500.788 178.7 502.1C180.179 503.325 180.266 504.025 179.396 512.862C178.874 518.025 178.178 525.725 177.917 529.925L177.308 537.625H173.045H168.782V530.625C168.782 521.263 170.087 508.575 172.871 491.425C174.785 479.7 175.481 477.338 176.525 477.6C177.308 477.862 179.396 478.3 181.223 478.65ZM855.218 567.288C855.218 574.812 853.043 597.3 851.825 602.288C851.39 604.038 850.607 608.85 849.998 613.138C849.041 619.438 848.606 620.663 847.475 620.4C846.692 620.138 844.604 619.7 842.777 619.35C839.123 618.738 839.21 619 841.298 608.5C843.299 598.788 846.518 569.825 846.518 561.425C846.518 560.725 847.997 560.375 850.868 560.375H855.218V567.288ZM837.209 623.55C836.948 624.688 835.817 629.238 834.599 633.788C833.468 638.25 832.685 642.1 832.859 642.363C833.381 642.8 834.425 639.562 836.948 629.413L838.862 621.888L843.125 622.763C846.17 623.375 847.388 623.988 847.388 625.038C847.388 625.825 846.257 630.638 844.865 635.8C843.473 641.05 842.603 645.25 842.951 645.25C843.647 645.25 846.779 634.4 847.91 628.363C848.432 625.3 849.998 622.938 849.998 625.212C849.998 625.825 848.78 630.9 847.301 636.587L844.604 646.825L840.08 645.6C834.164 643.85 830.858 642.538 830.858 641.837C830.771 639.3 835.904 621.625 836.687 621.625C837.209 621.625 837.47 622.413 837.209 623.55ZM195.926 847.812C195.926 848.25 195.491 848.775 194.969 848.95C194.447 849.125 194.012 848.6 194.012 847.812C194.012 847.025 194.447 846.5 194.969 846.675C195.491 846.85 195.926 847.375 195.926 847.812Z" fill="#96ACA0" fill-opacity="0.8"/>
<path d="M183.572 472.963C183.572 473.4 184.007 473.575 184.442 473.313C184.964 473.05 185.312 472.613 185.312 472.35C185.312 472.175 184.964 472 184.442 472C184.007 472 183.572 472.438 183.572 472.963Z" fill="#96ACA0" fill-opacity="0.8"/>
<path d="M180.092 493C180.005 493.263 179.831 494.838 179.657 496.5C179.309 499.213 179.396 499.3 180.179 497.463C180.614 496.238 180.875 494.663 180.701 493.963C180.44 493.175 180.179 492.738 180.092 493Z" fill="#96ACA0" fill-opacity="0.8"/>
<path d="M177.482 507C177.482 507.438 177.917 507.875 178.352 507.875C178.874 507.875 179.222 507.438 179.222 507C179.222 506.475 178.874 506.125 178.352 506.125C177.917 506.125 177.482 506.475 177.482 507Z" fill="#96ACA0" fill-opacity="0.8"/>
<path d="M849.824 592.488C850.433 592.75 851.216 592.662 851.477 592.4C851.825 592.138 851.303 591.876 850.346 591.963C849.389 591.963 849.128 592.225 849.824 592.488Z" fill="#96ACA0" fill-opacity="0.8"/>
<path d="M585.342 8.07499C584.994 9.12499 585.168 9.99999 585.516 9.99999C585.951 9.99999 586.473 10.875 586.647 11.925C586.995 13.7625 586.995 13.7625 587.082 11.75C587.082 10.525 586.821 8.77499 586.473 7.89999C585.864 6.23749 585.777 6.23749 585.342 8.07499Z" fill="#96ACA0" fill-opacity="0.8"/>
<path d="M436.918 1086.25C436.918 1087.48 437.179 1089.23 437.527 1090.1C438.136 1091.76 438.223 1091.76 438.658 1089.93C439.006 1088.88 438.832 1088 438.484 1088C438.049 1088 437.527 1087.13 437.353 1085.99C437.005 1084.24 437.005 1084.24 436.918 1086.25Z" fill="#96ACA0" fill-opacity="0.8"/>
<path d="M437.005 1095.44C437.005 1097.36 437.179 1098.06 437.353 1096.92C437.527 1095.87 437.527 1094.3 437.353 1093.43C437.092 1092.64 436.918 1093.51 437.005 1095.44Z" fill="#96ACA0" fill-opacity="0.8"/>
<path d="M436.048 1101.56C436.048 1102.96 436.222 1103.49 436.483 1102.61C436.657 1101.83 436.657 1100.6 436.483 1099.99C436.222 1099.46 436.048 1100.08 436.048 1101.56Z" fill="#96ACA0" fill-opacity="0.8"/>
</g>
<circle cx="512" cy="549" r="261" stroke="#E6F7ED" stroke-width="12"/>
</g>
<defs>
<clipPath id="clip0_3_91">
<rect width="1024" height="1100" fill="white"/>
</clipPath>
<clipPath id="clip1_3_91">
<rect width="1024" height="1120" fill="white" transform="translate(0 -11)"/>
</clipPath>
</defs>
</svg>
